<?xml version="1.0" encoding="UTF-8" standalone="no"?>
<!-- Created with Inkscape (http://www.inkscape.org/) -->

<svg
   xmlns:osb="http://www.openswatchbook.org/uri/2009/osb"
   xmlns:dc="http://purl.org/dc/elements/1.1/"
   xmlns:cc="http://creativecommons.org/ns#"
   xmlns:rdf="http://www.w3.org/1999/02/22-rdf-syntax-ns#"
   xmlns:svg="http://www.w3.org/2000/svg"
   xmlns="http://www.w3.org/2000/svg"
   xmlns:sodipodi="http://sodipodi.sourceforge.net/DTD/sodipodi-0.dtd"
   xmlns:inkscape="http://www.inkscape.org/namespaces/inkscape"
   width="210mm"
   height="297mm"
   viewBox="0 0 210 297"
   version="1.1"
   id="svg8"
   inkscape:version="0.92.1 r15371"
   sodipodi:docname="testDrawing2.svg">
  <defs
     id="defs2">
    <linearGradient
       id="linearGradient4509"
       osb:paint="solid">
      <stop
         style="stop-color:#ff2a2a;stop-opacity:1;"
         offset="0"
         id="stop4507" />
    </linearGradient>
  </defs>
  <sodipodi:namedview
     id="base"
     pagecolor="#ffffff"
     bordercolor="#666666"
     borderopacity="1.0"
     inkscape:pageopacity="0.0"
     inkscape:pageshadow="2"
     inkscape:zoom="0.49484016"
     inkscape:cx="1797.5474"
     inkscape:cy="288.47589"
     inkscape:document-units="mm"
     inkscape:current-layer="layer1"
     showgrid="false"
     inkscape:measure-start="1665.94,803.273"
     inkscape:measure-end="890.955,780.646"
     inkscape:window-width="1920"
     inkscape:window-height="986"
     inkscape:window-x="-11"
     inkscape:window-y="-11"
     inkscape:window-maximized="1" />
  <metadata
     id="metadata5">
    <rdf:RDF>
      <cc:Work
         rdf:about="">
        <dc:format>image/svg+xml</dc:format>
        <dc:type
           rdf:resource="http://purl.org/dc/dcmitype/StillImage" />
        <dc:title />
      </cc:Work>
    </rdf:RDF>
  </metadata>
  <g
     inkscape:label="Layer 1"
     inkscape:groupmode="layer"
     id="layer1">
    <path
       style="fill:none;stroke:#000000;stroke-width:1;stroke-linecap:butt;stroke-linejoin:miter;stroke-miterlimit:4;stroke-dasharray:none;stroke-opacity:1"
       d="m 234.8072,117.2046 c 0,0 0.19736,-4.57279 0.19736,155.36611 -5.86187,19.02047 44.03516,47.45796 59.00226,4.49013 l 2.50725,-159.9389"
       id="path4485"
       inkscape:connector-curvature="0"
       sodipodi:nodetypes="cccc"
       inkscape:export-xdpi="96"
       inkscape:export-ydpi="96" />
    <path
       style="fill:none;stroke:#000000;stroke-width:0.26458332px;stroke-linecap:butt;stroke-linejoin:miter;stroke-opacity:1"
       d="m 234.93799,235.21033 c 0.83133,-0.4988 0.0397,0.0197 0.63297,-0.47473 0.0731,-0.0609 0.15824,-0.10549 0.23737,-0.15824"
       id="path4501"
       inkscape:connector-curvature="0"
       inkscape:export-xdpi="96"
       inkscape:export-ydpi="96" />
    <ellipse
       style="opacity:1;fill:none;fill-opacity:1;stroke:#000000;stroke-width:1;stroke-miterlimit:4;stroke-dasharray:none;stroke-opacity:1"
       id="path4505"
       cx="265.95349"
       cy="91.367989"
       rx="42.408962"
       ry="38.611145"
       inkscape:export-xdpi="96"
       inkscape:export-ydpi="96" />
    <path
       style="fill:none;stroke:#000000;stroke-width:0.59799999;stroke-linecap:butt;stroke-linejoin:miter;stroke-miterlimit:4;stroke-dasharray:none;stroke-opacity:1"
       d="m 272.63121,374.71691 -1.49006,-29.51962 -13.54702,-62.16168"
       id="path4511"
       inkscape:connector-curvature="0"
       sodipodi:nodetypes="ccc"
       inkscape:export-xdpi="96"
       inkscape:export-ydpi="96" />
    <path
       style="fill:none;stroke:#000000;stroke-width:0.59799999;stroke-linecap:butt;stroke-linejoin:miter;stroke-miterlimit:4;stroke-dasharray:none;stroke-opacity:1"
       d="m 294.00682,277.06084 11.38953,65.38327 2.49004,29.25681 c -3.67968,15.92107 -21.22222,25.87584 -35.25518,3.016"
       id="path4513"
       inkscape:connector-curvature="0"
       sodipodi:nodetypes="cccc"
       inkscape:export-xdpi="96"
       inkscape:export-ydpi="96" />
    <path
       style="fill:none;stroke:#000000;stroke-width:0.58732414;stroke-linecap:butt;stroke-linejoin:miter;stroke-miterlimit:4;stroke-dasharray:none;stroke-opacity:1"
       d="m 213.36136,361.21439 9.99798,-27.2535 11.64522,-61.39018"
       id="path4511-9"
       inkscape:connector-curvature="0"
       sodipodi:nodetypes="ccc"
       inkscape:export-xdpi="96"
       inkscape:export-ydpi="96" />
    <path
       style="fill:none;stroke:#000000;stroke-width:0.58732414;stroke-linecap:butt;stroke-linejoin:miter;stroke-miterlimit:4;stroke-dasharray:none;stroke-opacity:1"
       d="m 264.33997,308.00695 -8.96151,36.63022 -8.99318,27.40028 c -9.44448,12.97585 -29.12577,15.23151 -33.02393,-10.82305"
       id="path4513-6"
       inkscape:connector-curvature="0"
       sodipodi:nodetypes="cccc"
       inkscape:export-xdpi="96"
       inkscape:export-ydpi="96" />
    <path
       style="fill:none;stroke:#000000;stroke-width:0.47547647;stroke-linecap:butt;stroke-linejoin:miter;stroke-miterlimit:4;stroke-dasharray:none;stroke-opacity:1"
       d="m 274.85692,228.77699 -32.78342,-23.04815 6.04909,-55.82391"
       id="path4511-5"
       inkscape:connector-curvature="0"
       sodipodi:nodetypes="ccc"
       inkscape:export-xdpi="96"
       inkscape:export-ydpi="96" />
    <path
       style="fill:none;stroke:#000000;stroke-width:0.47547647;stroke-linecap:butt;stroke-linejoin:miter;stroke-miterlimit:4;stroke-dasharray:none;stroke-opacity:1"
       d="m 271.53082,152.93361 -5.5288,42.63167 26.71501,18.928 c 9.16092,1.91267 0.0834,29.02285 -17.86011,14.28371"
       id="path4513-9"
       inkscape:connector-curvature="0"
       sodipodi:nodetypes="cccc"
       inkscape:export-xdpi="96"
       inkscape:export-ydpi="96" />
    <path
       style="fill:none;stroke:#ff0000;stroke-width:2;stroke-linecap:butt;stroke-linejoin:miter;stroke-opacity:1;stroke-miterlimit:4;stroke-dasharray:none"
       d="M -28.109336,382.7695 H 797.87265"
       id="path4551"
       inkscape:connector-curvature="0" />
    <path
       style="fill:none;stroke:#000000;stroke-width:1;stroke-linecap:butt;stroke-linejoin:miter;stroke-miterlimit:4;stroke-dasharray:none;stroke-opacity:1"
       d="m 349.3524,118.17659 c 0,0 0.19736,-4.57279 0.19736,155.36611 -5.86187,19.02047 44.03516,47.45796 59.00226,4.49013 l 2.50725,-159.9389"
       id="path4485-5"
       inkscape:connector-curvature="0"
       sodipodi:nodetypes="cccc"
       inkscape:export-xdpi="96"
       inkscape:export-ydpi="96" />
    <path
       style="fill:none;stroke:#000000;stroke-width:0.26458332px;stroke-linecap:butt;stroke-linejoin:miter;stroke-opacity:1"
       d="m 349.48319,236.18233 c 0.83133,-0.4988 0.0397,0.0197 0.63297,-0.47473 0.0731,-0.0609 0.15824,-0.10549 0.23737,-0.15824"
       id="path4501-5"
       inkscape:connector-curvature="0"
       inkscape:export-xdpi="96"
       inkscape:export-ydpi="96" />
    <ellipse
       style="opacity:1;fill:none;fill-opacity:1;stroke:#000000;stroke-width:1;stroke-miterlimit:4;stroke-dasharray:none;stroke-opacity:1"
       id="path4505-4"
       cx="380.49869"
       cy="92.339981"
       rx="42.408962"
       ry="38.611145"
       inkscape:export-xdpi="96"
       inkscape:export-ydpi="96" />
    <path
       style="fill:none;stroke:#000000;stroke-width:0.59800005;stroke-linecap:butt;stroke-linejoin:miter;stroke-miterlimit:4;stroke-dasharray:none;stroke-opacity:1"
       d="m 369.78642,370.90208 0.94983,-28.78517 0.95113,-62.47786"
       id="path4511-2"
       inkscape:connector-curvature="0"
       sodipodi:nodetypes="ccc"
       inkscape:export-xdpi="96"
       inkscape:export-ydpi="96" />
    <path
       style="fill:none;stroke:#000000;stroke-width:0.59800005;stroke-linecap:butt;stroke-linejoin:miter;stroke-miterlimit:4;stroke-dasharray:none;stroke-opacity:1"
       d="m 408.55202,278.03283 -3.01395,66.33386 -3.03603,28.67983 c -5.54521,15.3711 -27.36988,23.26929 -32.71562,-2.14444"
       id="path4513-95"
       inkscape:connector-curvature="0"
       sodipodi:nodetypes="cccc"
       inkscape:export-xdpi="96"
       inkscape:export-ydpi="96" />
    <path
       style="fill:none;stroke:#000000;stroke-width:0.58732414;stroke-linecap:butt;stroke-linejoin:miter;stroke-miterlimit:4;stroke-dasharray:none;stroke-opacity:1"
       d="m 347.71353,363.24053 1.55775,-26.39849 0.27846,-63.29934"
       id="path4511-9-7"
       inkscape:connector-curvature="0"
       sodipodi:nodetypes="ccc"
       inkscape:export-xdpi="96"
       inkscape:export-ydpi="96" />
    <path
       style="fill:none;stroke:#000000;stroke-width:0.58732414;stroke-linecap:butt;stroke-linejoin:miter;stroke-miterlimit:4;stroke-dasharray:none;stroke-opacity:1"
       d="m 371.61541,375.99746 c 2.55617,8.06236 -30.19801,17.92707 -23.90188,-12.75693"
       id="path4513-6-9"
       inkscape:connector-curvature="0"
       sodipodi:nodetypes="cc"
       inkscape:export-xdpi="96"
       inkscape:export-ydpi="96" />
    <path
       style="fill:none;stroke:#000000;stroke-width:0.47547647;stroke-linecap:butt;stroke-linejoin:miter;stroke-miterlimit:4;stroke-dasharray:none;stroke-opacity:1"
       d="m 401.97837,226.1311 -36.15551,-17.28435 -3.30468,-56.05337"
       id="path4511-5-7"
       inkscape:connector-curvature="0"
       sodipodi:nodetypes="ccc"
       inkscape:export-xdpi="96"
       inkscape:export-ydpi="96" />
    <path
       style="fill:none;stroke:#000000;stroke-width:0.47547647;stroke-linecap:butt;stroke-linejoin:miter;stroke-miterlimit:4;stroke-dasharray:none;stroke-opacity:1"
       d="m 386.10435,151.89299 1.62712,42.95788 29.48719,14.22908 c 9.35134,0.36491 4.9016,28.60606 -15.24029,17.05115"
       id="path4513-9-1"
       inkscape:connector-curvature="0"
       sodipodi:nodetypes="cccc"
       inkscape:export-xdpi="96"
       inkscape:export-ydpi="96" />
    <path
       style="fill:none;stroke:#000000;stroke-width:1;stroke-linecap:butt;stroke-linejoin:miter;stroke-miterlimit:4;stroke-dasharray:none;stroke-opacity:1"
       d="m 461.78974,118.17659 c 0,0 0.19736,-4.57279 0.19736,155.36611 -5.86187,19.02047 44.03516,47.45796 59.00226,4.49013 l 2.50725,-159.9389"
       id="path4485-2"
       inkscape:connector-curvature="0"
       sodipodi:nodetypes="cccc"
       inkscape:export-filename="C:\Users\Florian\path4513-9-4.png"
       inkscape:export-xdpi="96"
       inkscape:export-ydpi="96" />
    <path
       style="fill:none;stroke:#000000;stroke-width:0.26458332px;stroke-linecap:butt;stroke-linejoin:miter;stroke-opacity:1"
       d="m 461.92053,236.18233 c 0.83133,-0.4988 0.0397,0.0197 0.63297,-0.47473 0.0731,-0.0609 0.15824,-0.10549 0.23737,-0.15824"
       id="path4501-7"
       inkscape:connector-curvature="0"
       inkscape:export-filename="C:\Users\Florian\path4513-9-4.png"
       inkscape:export-xdpi="96"
       inkscape:export-ydpi="96" />
    <ellipse
       style="opacity:1;fill:none;fill-opacity:1;stroke:#000000;stroke-width:1;stroke-miterlimit:4;stroke-dasharray:none;stroke-opacity:1"
       id="path4505-2"
       cx="492.93604"
       cy="92.339981"
       rx="42.408962"
       ry="38.611145"
       inkscape:export-filename="C:\Users\Florian\path4513-9-4.png"
       inkscape:export-xdpi="96"
       inkscape:export-ydpi="96" />
    <path
       style="fill:none;stroke:#000000;stroke-width:0.59800005;stroke-linecap:butt;stroke-linejoin:miter;stroke-miterlimit:4;stroke-dasharray:none;stroke-opacity:1"
       d="m 468.47914,363.09927 8.37005,-28.34731 7.80355,-63.14033"
       id="path4511-4"
       inkscape:connector-curvature="0"
       sodipodi:nodetypes="ccc"
       inkscape:export-filename="C:\Users\Florian\path4513-9-4.png"
       inkscape:export-xdpi="96"
       inkscape:export-ydpi="96" />
    <path
       style="fill:none;stroke:#000000;stroke-width:0.59800005;stroke-linecap:butt;stroke-linejoin:miter;stroke-miterlimit:4;stroke-dasharray:none;stroke-opacity:1"
       d="m 520.98936,278.03283 -10.90619,65.46562 -7.33947,28.43051 c -8.74462,13.80404 -28.59399,17.38752 -34.26457,-8.82966"
       id="path4513-0"
       inkscape:connector-curvature="0"
       sodipodi:nodetypes="cccc"
       inkscape:export-filename="C:\Users\Florian\path4513-9-4.png"
       inkscape:export-xdpi="96"
       inkscape:export-ydpi="96" />
    <path
       style="fill:none;stroke:#000000;stroke-width:0.59999603;stroke-linecap:butt;stroke-linejoin:miter;stroke-miterlimit:4;stroke-dasharray:none;stroke-opacity:1"
       d="M 496.17756,367.76111 482.0118,334.52207 461.9871,273.5427"
       id="path4511-9-2"
       inkscape:connector-curvature="0"
       sodipodi:nodetypes="ccc"
       inkscape:export-filename="C:\Users\Florian\path4513-9-4.png"
       inkscape:export-xdpi="96"
       inkscape:export-ydpi="96" />
    <path
       style="fill:none;stroke:#000000;stroke-width:0.59999603;stroke-linecap:butt;stroke-linejoin:miter;stroke-miterlimit:4;stroke-dasharray:none;stroke-opacity:1"
       d="m 497.91002,262.20444 21.91667,61.70734 12.6201,31.78333 c -1.19765,16.00794 -18.42897,32.11116 -36.26923,12.066"
       id="path4513-6-6"
       inkscape:connector-curvature="0"
       sodipodi:nodetypes="cccc"
       inkscape:export-filename="C:\Users\Florian\path4513-9-4.png"
       inkscape:export-xdpi="96"
       inkscape:export-ydpi="96" />
    <path
       style="fill:none;stroke:#000000;stroke-width:0.47547647;stroke-linecap:butt;stroke-linejoin:miter;stroke-miterlimit:4;stroke-dasharray:none;stroke-opacity:1"
       d="m 501.83946,229.74899 -32.78342,-23.04815 6.04909,-55.82392"
       id="path4511-5-2"
       inkscape:connector-curvature="0"
       sodipodi:nodetypes="ccc"
       inkscape:export-filename="C:\Users\Florian\path4513-9-4.png"
       inkscape:export-xdpi="96"
       inkscape:export-ydpi="96" />
    <path
       style="fill:none;stroke:#000000;stroke-width:0.47547647;stroke-linecap:butt;stroke-linejoin:miter;stroke-miterlimit:4;stroke-dasharray:none;stroke-opacity:1"
       d="m 498.51336,153.90561 -5.5288,42.63167 26.71501,18.928 c 9.16092,1.91267 0.0834,29.02284 -17.86011,14.28371"
       id="path4513-9-4"
       inkscape:connector-curvature="0"
       sodipodi:nodetypes="cccc"
       inkscape:export-filename="C:\Users\Florian\path4513-9-4.png"
       inkscape:export-xdpi="96"
       inkscape:export-ydpi="96" />
    <path
       style="fill:none;stroke:#000000;stroke-width:1;stroke-linecap:butt;stroke-linejoin:miter;stroke-miterlimit:4;stroke-dasharray:none;stroke-opacity:1"
       d="m 580.71385,117.45584 c 0,0 0.19736,-4.57279 0.19736,155.36611 -5.86187,19.02047 44.03517,47.45796 59.00227,4.49013 l 2.50725,-159.9389"
       id="path4485-6"
       inkscape:connector-curvature="0"
       sodipodi:nodetypes="cccc"
       inkscape:export-xdpi="96"
       inkscape:export-ydpi="96" />
    <path
       style="fill:none;stroke:#000000;stroke-width:0.26458332px;stroke-linecap:butt;stroke-linejoin:miter;stroke-opacity:1"
       d="m 580.84464,235.46157 c 0.83133,-0.4988 0.0397,0.0197 0.63297,-0.47473 0.0731,-0.0609 0.15824,-0.10549 0.23737,-0.15824"
       id="path4501-3"
       inkscape:connector-curvature="0"
       inkscape:export-xdpi="96"
       inkscape:export-ydpi="96" />
    <ellipse
       style="opacity:1;fill:none;fill-opacity:1;stroke:#000000;stroke-width:1;stroke-miterlimit:4;stroke-dasharray:none;stroke-opacity:1"
       id="path4505-45"
       cx="611.86011"
       cy="91.619232"
       rx="42.408962"
       ry="38.611145"
       inkscape:export-xdpi="96"
       inkscape:export-ydpi="96" />
    <path
       style="fill:none;stroke:#000000;stroke-width:0.60765225;stroke-linecap:butt;stroke-linejoin:miter;stroke-miterlimit:4;stroke-dasharray:none;stroke-opacity:1"
       d="m 571.44085,354.2002 15.17553,-28.10347 24.74419,-66.73078"
       id="path4511-53"
       inkscape:connector-curvature="0"
       sodipodi:nodetypes="ccc"
       inkscape:export-xdpi="96"
       inkscape:export-ydpi="96" />
    <path
       style="fill:none;stroke:#000000;stroke-width:0.60765225;stroke-linecap:butt;stroke-linejoin:miter;stroke-miterlimit:4;stroke-dasharray:none;stroke-opacity:1"
       d="m 639.86964,280.31127 -28.00785,68.11475 -14.33841,28.5883 c -11.29104,11.90498 -28.91113,8.2919 -26.08256,-22.8141"
       id="path4513-4"
       inkscape:connector-curvature="0"
       sodipodi:nodetypes="cccc"
       inkscape:export-xdpi="96"
       inkscape:export-ydpi="96" />
    <path
       style="fill:none;stroke:#000000;stroke-width:0.63500369;stroke-linecap:butt;stroke-linejoin:miter;stroke-miterlimit:4;stroke-dasharray:none;stroke-opacity:1"
       d="m 615.95526,358.32445 -7.48052,-28.13847 -27.56353,-57.36403"
       id="path4511-9-5"
       inkscape:connector-curvature="0"
       sodipodi:nodetypes="ccc"
       inkscape:export-xdpi="96"
       inkscape:export-ydpi="96" />
    <path
       style="fill:none;stroke:#000000;stroke-width:0.63500369;stroke-linecap:butt;stroke-linejoin:miter;stroke-miterlimit:4;stroke-dasharray:none;stroke-opacity:1"
       d="m 621.05631,260.46334 25.74733,60.85597 8.56357,27.70405 c 5.41534,25.69181 -17.61931,30.83306 -39.41198,9.3011"
       id="path4513-6-0"
       inkscape:connector-curvature="0"
       sodipodi:nodetypes="cccc"
       inkscape:export-xdpi="96"
       inkscape:export-ydpi="96" />
    <path
       style="fill:none;stroke:#000000;stroke-width:0.47547647;stroke-linecap:butt;stroke-linejoin:miter;stroke-miterlimit:4;stroke-dasharray:none;stroke-opacity:1"
       d="m 620.76357,229.02823 -32.78342,-23.04815 6.04909,-55.82391"
       id="path4511-5-4"
       inkscape:connector-curvature="0"
       sodipodi:nodetypes="ccc"
       inkscape:export-xdpi="96"
       inkscape:export-ydpi="96" />
    <path
       style="fill:none;stroke:#000000;stroke-width:0.47547647;stroke-linecap:butt;stroke-linejoin:miter;stroke-miterlimit:4;stroke-dasharray:none;stroke-opacity:1"
       d="m 617.43747,153.18485 -5.5288,42.63167 26.71502,18.928 c 9.16092,1.91267 0.0834,29.02285 -17.86012,14.28371"
       id="path4513-9-2"
       inkscape:connector-curvature="0"
       sodipodi:nodetypes="cccc"
       inkscape:export-xdpi="96"
       inkscape:export-ydpi="96" />
    <path
       style="fill:none;stroke:#000000;stroke-width:1;stroke-linecap:butt;stroke-linejoin:miter;stroke-miterlimit:4;stroke-dasharray:none;stroke-opacity:1"
       d="m 698.19645,117.45585 c 0,0 0.19736,-4.5728 0.19736,155.36611 -5.86187,19.02047 44.03516,47.45796 59.00226,4.49013 l 2.50725,-159.93891"
       id="path4485-51"
       inkscape:connector-curvature="0"
       sodipodi:nodetypes="cccc"
       inkscape:export-xdpi="96"
       inkscape:export-ydpi="96" />
    <path
       style="fill:none;stroke:#000000;stroke-width:0.26458332px;stroke-linecap:butt;stroke-linejoin:miter;stroke-opacity:1"
       d="m 698.32724,235.46158 c 0.83133,-0.4988 0.0397,0.0197 0.63297,-0.47473 0.0731,-0.0609 0.15824,-0.10549 0.23737,-0.15824"
       id="path4501-0"
       inkscape:connector-curvature="0"
       inkscape:export-xdpi="96"
       inkscape:export-ydpi="96" />
    <ellipse
       style="opacity:1;fill:none;fill-opacity:1;stroke:#000000;stroke-width:1;stroke-miterlimit:4;stroke-dasharray:none;stroke-opacity:1"
       id="path4505-22"
       cx="729.34271"
       cy="91.619225"
       rx="42.408962"
       ry="38.611145"
       inkscape:export-xdpi="96"
       inkscape:export-ydpi="96" />
    <path
       style="fill:none;stroke:#000000;stroke-width:0.5726912;stroke-linecap:butt;stroke-linejoin:miter;stroke-miterlimit:4;stroke-dasharray:none;stroke-opacity:1"
       d="m 703.1688,350.635 8.4948,-24.61933 7.55005,-55.05684"
       id="path4511-1"
       inkscape:connector-curvature="0"
       sodipodi:nodetypes="ccc"
       inkscape:export-xdpi="96"
       inkscape:export-ydpi="96" />
    <path
       style="fill:none;stroke:#000000;stroke-width:0.5726912;stroke-linecap:butt;stroke-linejoin:miter;stroke-miterlimit:4;stroke-dasharray:none;stroke-opacity:1"
       d="m 757.39607,277.31209 -10.78135,57.02727 -7.41285,24.71301 c -9.03422,11.89385 -29.82045,14.62439 -36.03307,-8.41734"
       id="path4513-1"
       inkscape:connector-curvature="0"
       sodipodi:nodetypes="cccc"
       inkscape:export-xdpi="96"
       inkscape:export-ydpi="96" />
    <path
       style="fill:none;stroke:#000000;stroke-width:0.6057198;stroke-linecap:butt;stroke-linejoin:miter;stroke-miterlimit:4;stroke-dasharray:none;stroke-opacity:1"
       d="m 720.29258,366.22517 -3.73868,-30.3427 -18.16009,-63.06051"
       id="path4511-9-4"
       inkscape:connector-curvature="0"
       sodipodi:nodetypes="ccc"
       inkscape:export-xdpi="96"
       inkscape:export-ydpi="96" />
    <path
       style="fill:none;stroke:#000000;stroke-width:0.6057198;stroke-linecap:butt;stroke-linejoin:miter;stroke-miterlimit:4;stroke-dasharray:none;stroke-opacity:1"
       d="m 733.92102,263.73775 16.2752,66.5579 4.70674,29.99133 c -2.41436,16.72434 -18.98708,28.40308 -34.61039,5.93819"
       id="path4513-6-2"
       inkscape:connector-curvature="0"
       sodipodi:nodetypes="cccc"
       inkscape:export-xdpi="96"
       inkscape:export-ydpi="96" />
    <path
       style="fill:none;stroke:#000000;stroke-width:0.47547647;stroke-linecap:butt;stroke-linejoin:miter;stroke-miterlimit:4;stroke-dasharray:none;stroke-opacity:1"
       d="m 738.24617,229.02824 -32.78342,-23.04815 6.04909,-55.82391"
       id="path4511-5-43"
       inkscape:connector-curvature="0"
       sodipodi:nodetypes="ccc"
       inkscape:export-xdpi="96"
       inkscape:export-ydpi="96" />
    <path
       style="fill:none;stroke:#000000;stroke-width:0.47547647;stroke-linecap:butt;stroke-linejoin:miter;stroke-miterlimit:4;stroke-dasharray:none;stroke-opacity:1"
       d="m 734.92007,153.18486 -5.5288,42.63167 26.71501,18.928 c 9.16092,1.91267 0.0834,29.02285 -17.86011,14.28371"
       id="path4513-9-8"
       inkscape:connector-curvature="0"
       sodipodi:nodetypes="cccc"
       inkscape:export-xdpi="96"
       inkscape:export-ydpi="96" />
    <path
       style="opacity:1;fill:none;fill-opacity:1;stroke:#ff0000;stroke-width:15.27575111;stroke-miterlimit:4;stroke-dasharray:none;stroke-opacity:1"
       d="m 996.77683,1128.8291 -8.39345,-0.7622 -3.01628,-13.5341 c -1.65895,-7.4438 -4.56622,-20.5818 -6.46059,-29.1957 -1.89438,-8.6139 -4.26243,-15.6617 -5.26233,-15.6617 -0.9999,0 -1.818,0.317 -1.818,0.7044 0,0.743 9.25268,43.3874 11.19068,51.5762 1.07977,4.5626 0.76832,4.7251 -6.54411,3.4144 -11.30829,-2.0268 -42.59984,-17.8466 -53.75185,-27.1748 -14.17808,-11.8594 -25.26049,-26.115 -29.24132,-37.614 -3.26572,-9.4333 -3.46064,-29.9989 -2.93533,-309.69754 l 0.56268,-299.59326 10.55202,8.40453 c 12.95363,10.31738 42.089,24.26642 61.07339,29.23991 19.81524,5.19115 65.10766,5.18409 84.87586,-0.0131 18.7868,-4.93928 45.6605,-17.57342 59.326,-27.89094 l 11.0557,-8.34718 -1.3268,75.59229 c -0.7298,41.57575 -1.9356,121.781 -2.6796,178.23386 -0.744,56.45288 -2.0215,103.05488 -2.8388,103.55999 -0.8172,0.50511 -24.304,-15.21922 -52.1927,-34.94296 -47.1923,-33.37587 -50.7023,-36.28164 -50.6423,-41.924 0.035,-3.33441 4.456,-39.2551 9.8236,-79.82376 5.6136,-42.42904 9.0107,-74.57669 7.9971,-75.681 -1.1128,-1.21252 -1.7633,-1.21252 -1.7654,0 0,1.05589 -4.5473,36.93111 -10.1009,79.72271 -5.5535,42.7916 -10.0989,78.91702 -10.1008,80.27871 0,2.40922 93.2098,69.9188 102.4443,74.19523 4.4055,2.04016 4.6268,3.19289 4.6418,24.18094 0.014,20.34245 -0.3689,22.5429 -4.9814,28.5903 -5.8532,7.67384 -19.9333,15.04882 -28.7309,15.04882 -12.6387,0 -24.5528,-7.03417 -91.11866,-53.7968 -37.4797,-26.32956 -68.50232,-48.16428 -68.93917,-48.52161 -0.43685,-0.35731 4.31329,-47.68014 10.55587,-105.16186 6.24258,-57.48169 10.91958,-104.94274 10.39333,-105.46899 -0.52625,-0.52625 -1.29606,-0.5779 -1.71069,-0.11478 -0.41463,0.4631 -5.44013,44.49247 -11.16778,97.84303 -5.72765,53.35056 -10.92819,100.73404 -11.55677,105.29661 l -1.14285,8.29561 67.61809,47.59363 c 37.18993,26.17651 70.37043,49.01696 73.73443,50.75653 17.442,9.01962 35.2363,7.49996 48.8746,-4.174 l 8.4389,-7.22334 -1.3957,90.69824 c -1.3898,90.32138 -1.4163,90.74818 -6.3825,102.71908 -20.062,48.3588 -60.003,74.637 -106.96137,70.3726 z"
       id="path4713"
       inkscape:connector-curvature="0"
       transform="scale(0.26458333)"
       inkscape:export-xdpi="96"
       inkscape:export-ydpi="96" />
    <path
       style="opacity:1;fill:none;fill-opacity:1;stroke:#ff0000;stroke-width:15.27575111;stroke-miterlimit:4;stroke-dasharray:none;stroke-opacity:1"
       d="m 851.80414,1436.6353 c -10.09999,-3.7585 -24.46971,-17.7476 -30.67505,-29.8625 -2.67042,-5.2135 -6.7431,-16.3602 -9.0504,-24.7704 l -4.19509,-15.2912 19.09557,-52.0649 19.09556,-52.0649 18.82569,-99.4842 c 10.35413,-54.7164 19.32378,-99.4739 19.93256,-99.4611 0.60879,0.013 2.826,3.612 4.92714,7.9984 4.94819,10.3299 21.46578,28.8075 32.59907,36.4674 12.71061,8.7451 38.58594,21.2767 51.95044,25.1599 12.83102,3.7281 12.6407,3.402 17.72962,30.3834 2.22672,11.806 1.88683,13.7579 -12.91613,74.174 -8.80618,35.9412 -22.51734,84.5749 -32.58657,115.5852 l -17.38355,53.5362 -11.7532,10.8814 c -6.46426,5.9847 -16.18722,12.98 -21.60657,15.5449 -12.37109,5.8551 -32.93243,7.3828 -43.98909,3.2684 z"
       id="path4715"
       inkscape:connector-curvature="0"
       transform="scale(0.26458333)"
       inkscape:export-xdpi="96"
       inkscape:export-ydpi="96" />
    <path
       style="opacity:1;fill:none;fill-opacity:1;stroke:#ff0000;stroke-width:15.27575111;stroke-miterlimit:4;stroke-dasharray:none;stroke-opacity:1"
       d="m 1043.0999,1430.9032 c -4.4171,-5.8352 -8.6244,-11.6666 -9.3495,-12.9586 -0.7251,-1.2921 -2.6629,-27.6642 -4.306,-58.6048 l -2.9876,-56.2557 -13.2686,-60.5979 c -7.2977,-33.3288 -12.7704,-62.5827 -12.1615,-65.0086 1.0244,-4.0817 -3.06343,-30.0901 -5.83213,-37.106 -1.01188,-2.5641 1.35587,-3.1204 14.48733,-3.404 39.2611,-0.848 75.0062,-23.8918 93.9779,-60.5846 3.6272,-7.0153 7.0496,-12.7544 7.6053,-12.7534 0.5558,9e-4 9.9784,51.6052 20.9391,114.676 17.2145,99.0561 20.599,122.3761 24.8501,171.2241 5.458,62.7148 5.4325,63.0119 -7.1461,83.3907 l -5.299,8.5851 h -46.7391 -46.7391 l -8.0311,-10.6095 z"
       id="path4717"
       inkscape:connector-curvature="0"
       transform="scale(0.26458333)"
       inkscape:export-xdpi="96"
       inkscape:export-ydpi="96" />
    <path
       style="opacity:1;fill:#000000;fill-opacity:1;stroke:#ff0000;stroke-width:15.27575111;stroke-miterlimit:4;stroke-dasharray:none;stroke-opacity:1"
       d="m 963.74276,480.43032 c -17.69479,-4.66672 -45.97757,-19.33879 -65.63503,-34.04909 -25.2829,-18.91999 -37.35419,-36.6229 -45.68935,-67.00484 -6.08028,-22.1628 -4.90638,-56.09545 2.67389,-77.29144 17.58237,-49.16393 61.17375,-85.2125 116.6011,-96.42511 22.33183,-4.51758 59.29453,-3.14088 80.60523,3.0022 52.7302,15.20016 93.7808,55.5501 106.3095,104.49506 4.5931,17.94341 4.1708,48.75057 -0.92,67.12146 -8.1592,29.44345 -21.6886,49.06187 -46.2878,67.12017 -19.3286,14.18908 -47.9144,28.60762 -65.7323,33.15498 -15.919,4.06273 -66.34061,3.98679 -81.92524,-0.12347 z"
       id="path4719"
       inkscape:connector-curvature="0"
       transform="scale(0.26458333)"
       inkscape:export-xdpi="96"
       inkscape:export-ydpi="96" />
    <path
       style="opacity:1;fill:#ff0000;fill-opacity:1;stroke:#000000;stroke-width:15.27575111;stroke-miterlimit:4;stroke-dasharray:none;stroke-opacity:1"
       d="m 967.78447,472.83767 c -36.85646,-8.70247 -84.11578,-42.62247 -98.25249,-70.51992 -11.9691,-23.61987 -15.86549,-56.91375 -9.93549,-84.89678 9.93595,-46.88673 51.39071,-87.42763 104.14627,-101.8504 18.12421,-4.95495 64.33044,-4.97705 82.85504,-0.0396 46.7611,12.4634 84.2228,45.24851 100.374,87.8435 10.7052,28.23265 8.244,69.46801 -5.8271,97.62681 -12.6693,25.35346 -46.2575,52.29907 -83.1199,66.68159 -15.5657,6.0733 -18.2153,6.46706 -47.8024,7.10444 -20.88289,0.44986 -35.02786,-0.20007 -42.43793,-1.94962 z"
       id="path4721"
       inkscape:connector-curvature="0"
       transform="scale(0.26458333)"
       inkscape:export-xdpi="96"
       inkscape:export-ydpi="96" />
    <path
       style="opacity:1;fill:#ff0000;fill-opacity:1;stroke:#000000;stroke-width:15.27575111;stroke-miterlimit:4;stroke-dasharray:none;stroke-opacity:1"
       d="m 994.05558,1117.2034 c 0,-1.6464 -2.37299,-13.1132 -5.27331,-25.4819 -5.40177,-23.0362 -9.37692,-30.1295 -16.88499,-30.1295 -7.87586,0 -8.78161,6.7154 -3.97815,29.4947 2.4527,11.6313 3.84632,21.761 3.09692,22.5104 -0.74939,0.7494 -9.1843,-2.5166 -18.74424,-7.2579 -19.34895,-9.5961 -38.15429,-25.9392 -46.83805,-40.7055 l -5.34791,-9.0938 -0.53833,-293.52914 c -0.29608,-161.44102 -0.0824,-293.52913 0.47485,-293.52913 0.55725,0 5.37626,2.68463 10.7089,5.96584 12.81306,7.88395 35.75555,17.55023 51.46443,21.68333 17.60126,4.63099 68.3479,4.63099 85.9492,0 15.8221,-4.1629 38.6751,-13.81399 51.7273,-21.84508 l 9.9586,-6.12758 -1.2945,59.27174 c -0.7119,32.59946 -1.8653,102.46751 -2.563,155.26234 -0.6977,52.79482 -1.8386,99.46404 -2.5353,103.70935 l -1.2667,7.71875 -31.4288,-22.00272 c -54.7691,-38.34287 -54.5964,-38.19181 -53.3983,-46.71494 1.6942,-12.05181 14.8543,-119.4991 16.2933,-133.02848 0.7322,-6.88332 0.7728,-14.73986 0.09,-17.45898 -1.4885,-5.93073 -10.6209,-9.05634 -14.6186,-5.00328 -2.906,2.94621 -24.14465,165.5727 -22.26363,170.47457 1.22778,3.19953 42.88093,34.56752 81.65863,61.49519 l 24.6775,17.13632 v 17.27378 c 0,12.40772 -0.8915,18.54661 -3.1648,21.79219 -3.645,5.20398 -17.0352,12.54772 -22.8789,12.54772 -9.6103,0 -34.6706,-16.33679 -152.67288,-99.52708 -1.49319,-1.05269 -1.50362,-1.9786 -0.0341,-3.03128 1.16366,-0.83361 6.50175,-43.97057 11.86241,-95.85991 10.54369,-102.05931 10.71816,-113.15955 1.7986,-114.43279 -2.85835,-0.40802 -5.44564,1.01204 -7.36382,4.04171 -3.8137,6.02355 -27.04389,215.12347 -24.36767,219.33865 1.98693,3.12953 123.63236,88.71866 141.38596,99.47846 13.7984,8.36274 33.4895,10.64873 46.1522,5.35793 4.3355,-1.81149 8.233,-2.94339 8.661,-2.51531 0.4281,0.42805 -0.032,37.29806 -1.0211,81.93336 l -1.7995,81.15507 -8.2621,16.6735 c -17.7681,35.8575 -47.7409,55.9528 -83.4555,55.9528 -10.98835,0 -13.96589,-0.6382 -13.96589,-2.9934 z"
       id="path4723"
       inkscape:connector-curvature="0"
       transform="scale(0.26458333)"
       inkscape:export-xdpi="96"
       inkscape:export-ydpi="96" />
    <path
       style="opacity:1;fill:#ff0000;fill-opacity:1;stroke:#000000;stroke-width:15.27575111;stroke-miterlimit:4;stroke-dasharray:none;stroke-opacity:1"
       d="m 1048.0522,1423.8302 c -7.7593,-10.6812 -6.4542,-0.7417 -11.609,-88.4124 -1.6741,-28.472 -3.723,-42.3132 -11.9655,-80.8342 -10.9033,-50.956 -12.9909,-62.3055 -16.1695,-87.9071 -2.9309,-23.607 -3.3363,-22.2294 6.5418,-22.2294 28.1604,0 64.0516,-19.308 83.1712,-44.7427 6.9435,-9.237 9.1603,-11.0811 9.9993,-8.3182 1.7078,5.6247 24.6298,137.5162 30.2944,174.3121 7.9203,51.449 11.8636,91.2608 12.1215,122.3803 0.2305,27.8217 0.1196,28.586 -5.3506,36.8806 l -5.586,8.4701 h -42.2372 -42.2372 z"
       id="path4725"
       inkscape:connector-curvature="0"
       transform="scale(0.26458333)"
       inkscape:export-xdpi="96"
       inkscape:export-ydpi="96" />
    <path
       style="opacity:1;fill:#ff0000;fill-opacity:1;stroke:#000000;stroke-width:15.27575111;stroke-miterlimit:4;stroke-dasharray:none;stroke-opacity:1"
       d="m 857.82561,1429.9863 c -3.70434,-0.5857 -10.17626,-5.2218 -17.46668,-12.5122 -10.44022,-10.4403 -12.18967,-13.4794 -17.7484,-30.8326 l -6.16657,-19.2508 18.82786,-51.3514 18.82786,-51.3514 16.69413,-87.9072 c 9.18177,-48.3489 16.99958,-88.2578 17.37292,-88.6863 0.37333,-0.4286 6.90792,5.4824 14.5213,13.1355 14.59639,14.6726 34.75617,26.8164 62.05476,37.3804 13.59726,5.2619 14.24973,5.8245 16.51982,14.2461 1.29989,4.8224 2.43662,13.1964 2.52607,18.6089 0.29069,17.5897 -22.84039,108.5843 -47.58482,187.1923 l -13.04065,41.4276 -11.44567,10.9054 c -6.29511,5.998 -15.12506,12.5014 -19.6221,14.452 -8.93775,3.8768 -25.00998,6.0077 -34.26983,4.5437 z"
       id="path4727"
       inkscape:connector-curvature="0"
       transform="scale(0.26458333)"
       inkscape:export-xdpi="96"
       inkscape:export-ydpi="96" />
    <path
       style="opacity:1;fill:#ff0000;fill-opacity:1;stroke:#000000;stroke-width:15.27575111;stroke-miterlimit:4;stroke-dasharray:none;stroke-opacity:1"
       d="m 1403.2786,488.83455 c -34.6051,-7.99911 -55.8464,-19.69533 -81.0219,-44.6136 -14.6929,-14.54282 -20.028,-21.51387 -26.6219,-34.78521 -11.4376,-23.02036 -15.4461,-42.39598 -14.0871,-68.09258 3.147,-59.50568 43.8519,-108.13438 107.585,-128.52805 21.469,-6.86979 64.4569,-7.97865 88.33,-2.27844 56.061,13.38572 100.0857,54.10217 113.9205,105.36002 4.3026,15.94115 4.7881,46.94905 0.981,62.64649 -12.1982,50.29493 -53.6362,91.60612 -107.5873,107.25791 -19.1468,5.5547 -63.4561,7.20394 -81.4983,3.03346 z"
       id="path4729"
       inkscape:connector-curvature="0"
       transform="scale(0.26458333)"
       inkscape:export-xdpi="96"
       inkscape:export-ydpi="96" />
    <path
       style="opacity:1;fill:#ff0000;fill-opacity:1;stroke:#000000;stroke-width:15.27575111;stroke-miterlimit:4;stroke-dasharray:none;stroke-opacity:1"
       d="m 1419.4455,1131.3287 c -1.1115,-0.3707 -4.5217,-1.2256 -7.5782,-1.8998 l -5.5574,-1.2257 v -36.4561 c 0,-23.7895 -0.7021,-36.0222 -2.0208,-35.2072 -1.2186,0.7531 -2.0209,14.8406 -2.0209,35.4842 0,20.8064 -0.7701,34.2353 -1.9632,34.2353 -1.0798,0 -6.9226,-2.1933 -12.984,-4.8739 -25.0287,-11.0689 -48.7437,-31.8374 -58.6285,-51.344 l -5.2067,-10.275 -0.017,-301.12553 -0.018,-301.12559 13.3254,10.08592 c 16.4368,12.44101 27.2197,17.96693 49.3253,25.27779 15.9775,5.28416 19.4356,5.67843 49.5109,5.64491 45.2923,-0.0505 69.4477,-6.9004 101.7943,-28.86656 l 12.384,-8.40982 -0.01,38.97675 c -0.012,46.91008 -3.9925,270.99844 -4.8295,271.83539 -0.4709,0.47157 -76.1219,-35.23341 -77.3176,-36.49184 -0.1797,-0.18915 -1.3159,-25.80668 -2.525,-56.92784 -3.2687,-84.13571 -4.5866,-106.57991 -6.1495,-104.73154 -1.752,2.07203 3.6044,158.29654 5.5523,161.93747 0.7777,1.45356 19.1469,11.20434 40.8206,21.66839 l 39.4067,19.02554 0.6452,21.77998 c 0.9844,33.22497 -1.3754,63.2075 -4.9749,63.2075 -1.6116,0 -9.4812,-3.0914 -17.488,-6.86975 -30.3274,-14.31141 -137.5242,-65.91219 -138.0778,-66.46581 -0.3183,-0.31826 -3.3896,-47.7978 -6.825,-105.51007 -3.4355,-57.71226 -6.6597,-105.34473 -7.1649,-105.84994 -0.5052,-0.5052 -1.2556,-0.53963 -1.6676,-0.0765 -1.6504,1.8554 11.9969,211.96612 13.8846,213.76411 2.85,2.71456 150.2441,72.87414 156.279,74.38879 l 4.9645,1.24602 -1.4764,93.09303 -1.4763,93.093 -5.851,12.904 c -15.2566,33.6477 -39.8914,56.4247 -69.5848,64.3372 -8.8904,2.369 -40.9974,3.576 -46.4796,1.7472 z"
       id="path4731"
       inkscape:connector-curvature="0"
       transform="scale(0.26458333)"
       inkscape:export-xdpi="96"
       inkscape:export-ydpi="96" />
    <path
       style="opacity:1;fill:#ff0000;fill-opacity:1;stroke:#000000;stroke-width:15.27575111;stroke-miterlimit:4;stroke-dasharray:none;stroke-opacity:1"
       d=""
       id="path4733"
       inkscape:connector-curvature="0"
       transform="scale(0.26458333)" />
    <path
       style="opacity:1;fill:#ff0000;fill-opacity:1;stroke:#000000;stroke-width:15.27575111;stroke-miterlimit:4;stroke-dasharray:none;stroke-opacity:1"
       d="m 1552.5153,849.90751 c 0.7085,-7.50242 1.2947,-26.1579 1.3026,-41.45661 l 0.014,-27.81584 12.0675,6.09165 c 6.6371,3.35041 13.4709,6.09166 15.1861,6.09166 8.7189,0 14.028,23.31003 9.1684,40.25453 -4.5592,15.89698 -20.9772,30.47538 -34.321,30.47538 -4.5903,0 -4.6745,-0.33635 -3.418,-13.64077 z"
       id="path4735"
       inkscape:connector-curvature="0"
       transform="scale(0.26458333)"
       inkscape:export-xdpi="96"
       inkscape:export-ydpi="96" />
    <path
       style="opacity:1;fill:#ff0000;fill-opacity:1;stroke:#000000;stroke-width:15.27575111;stroke-miterlimit:4;stroke-dasharray:none;stroke-opacity:1"
       d="m 1411.9527,1435.9057 c -1.8217,-3.0838 -5.3449,-11.4806 -7.8293,-18.6596 l -4.5172,-13.0527 2.3742,-78.8466 c 1.3058,-43.3656 2.3674,-98.853 2.359,-123.3054 -0.01,-24.4523 0.5468,-49.1365 1.2337,-54.8538 l 1.249,-10.3949 6.2983,1.8063 c 8.436,2.4194 36.51,2.293 50.0028,-0.2252 25.9603,-4.8449 56.8029,-28.1643 72.1521,-54.5524 l 6.4651,-11.1147 -1.0437,13.1356 c -0.5741,7.2245 -2.8872,56.786 -5.1403,110.1366 -2.841,67.273 -5.9579,114.9616 -10.1701,155.6058 -6.4885,62.6071 -7.6049,67.1701 -20.1489,82.3498 l -6.2624,7.5782 h -41.8551 -41.8551 z"
       id="path4737"
       inkscape:connector-curvature="0"
       transform="scale(0.26458333)"
       inkscape:export-xdpi="96"
       inkscape:export-ydpi="96" />
    <path
       style="opacity:1;fill:#ff0000;fill-opacity:1;stroke:#000000;stroke-width:15.27575111;stroke-miterlimit:4;stroke-dasharray:none;stroke-opacity:1"
       d="m 1321.474,1432.1564 c -7.088,-11.1766 -9.0691,-22.3838 -7.3998,-41.8603 4.6839,-54.6479 7.3161,-109.045 7.5936,-156.9314 0.1771,-30.5655 0.879,-77.6458 1.5598,-104.6231 l 1.2377,-49.0495 8.5521,10.9597 c 10.7826,13.8183 29.285,27.796 49.27,37.2211 l 15.519,7.3189 -0.7704,23.3205 c -0.4237,12.8263 -1.7928,74.2461 -3.0423,136.4884 l -2.2719,113.1679 4.5451,11.9865 4.5452,11.9866 -5.4472,4.6855 c -5.1889,4.4633 -6.9292,4.6855 -36.7023,4.6855 h -31.255 z"
       id="path4739"
       inkscape:connector-curvature="0"
       transform="scale(0.26458333)"
       inkscape:export-xdpi="96"
       inkscape:export-ydpi="96" />
    <path
       style="opacity:1;fill:#ff0000;fill-opacity:1;stroke:#000000;stroke-width:15.27575111;stroke-miterlimit:4;stroke-dasharray:none;stroke-opacity:1"
       d="m 1809.2684,1435.7969 c -16.4841,-11.9547 -26.3464,-27.2334 -33.817,-52.3895 l -3.0682,-10.3318 15.7952,-53.4509 c 8.6874,-29.3981 16.3981,-58.3322 17.1349,-64.2982 3.0462,-24.6638 2.9927,-24.6558 11.1426,-1.6661 4.1201,11.6225 18.6065,47.0492 32.1918,78.7261 22.7462,53.0369 25.5227,58.4305 35.0876,68.1603 l 10.3869,10.566 -4.9401,5.4615 c -9.1374,10.102 -14.9916,14.7438 -25.0402,19.8545 -8.5195,4.333 -12.728,5.0839 -28.494,5.0839 -17.0991,0 -19.0941,-0.4323 -26.3795,-5.7158 z"
       id="path4741"
       inkscape:connector-curvature="0"
       transform="scale(0.26458333)"
       inkscape:export-xdpi="96"
       inkscape:export-ydpi="96" />
    <path
       style="opacity:1;fill:#ff0000;fill-opacity:1;stroke:#000000;stroke-width:15.27575111;stroke-miterlimit:4;stroke-dasharray:none;stroke-opacity:1"
       d="m 1890.7965,1395.5011 c -8.2738,-8.5133 -15.8405,-23.0971 -33.8596,-65.2595 -13.2635,-31.0352 -35.034,-84.9358 -37.1844,-92.0635 -0.7103,-2.3542 -3.087,-5.9054 -5.2816,-7.8914 -5.1788,-4.6868 -5.0921,-9.3849 1.0621,-57.5477 2.7694,-21.6736 5.0391,-39.9997 5.0437,-40.7245 0,-0.7248 4.328,6e-4 9.6075,1.612 13.6269,4.1591 39.8337,5.6061 54.0578,2.9847 6.6688,-1.229 18.4908,-5.3747 26.2711,-9.2127 7.7803,-3.838 14.6949,-6.3464 15.3659,-5.5743 0.6709,0.7722 5.4897,13.6959 10.7085,28.7196 l 9.4887,27.3157 -10.1471,60.5914 c -7.0585,42.1482 -14.2133,76.2767 -23.5055,112.1215 -7.3471,28.3415 -13.5698,51.7415 -13.8283,51.9999 -0.2584,0.2585 -3.7679,-2.9235 -7.7988,-7.0712 z"
       id="path4743"
       inkscape:connector-curvature="0"
       transform="scale(0.26458333)"
       inkscape:export-xdpi="96"
       inkscape:export-ydpi="96" />
    <path
       style="opacity:1;fill:#ff0000;fill-opacity:1;stroke:#000000;stroke-width:15.27575111;stroke-miterlimit:4;stroke-dasharray:none;stroke-opacity:1"
       d="m 1854.9396,1129.1165 c -33.2453,-5.3489 -32.334,-5.078 -32.3252,-9.6084 0,-2.3999 2.2743,-22.0964 5.0437,-43.7701 5.4012,-42.2701 6.0846,-52.4683 3.3112,-49.4099 -0.9575,1.0559 -4.268,23.4973 -7.3568,49.8698 l -5.6158,47.9499 -15.3779,-8.0035 c -8.4578,-4.4019 -20.1412,-12.1722 -25.9632,-17.2675 -10.3507,-9.0587 -10.787,-9.8969 -19.6859,-37.8145 l -9.1005,-28.5504 -0.021,-288.69275 -0.021,-288.69279 12.6339,8.96022 c 17.2422,12.22849 34.362,20.51948 55.4829,26.86995 23.3196,7.01151 63.6981,7.94973 87.4961,2.03302 17.8656,-4.44177 47.4293,-18.01049 61.535,-28.24242 5.5017,-3.99082 10.1922,-7.05897 10.4233,-6.81812 0.2311,0.24086 -0.8287,75.00746 -2.3551,166.148 -1.5264,91.14054 -2.8067,171.42572 -2.8451,178.41151 -0.066,11.98033 -0.2948,12.58107 -4.0313,10.58132 -2.1789,-1.16606 -25.8831,-17.68382 -52.676,-36.70612 l -48.7145,-34.58602 1.1512,-7.31854 c 0.6332,-4.02522 5.2664,-39.13052 10.296,-78.01178 8.2992,-64.15653 9.9584,-83.01231 6.4937,-73.79789 -0.9293,2.47152 -18.9992,141.96932 -20.3223,156.88595 -0.3088,3.48234 9.2695,11.16175 49.8092,39.93466 27.6054,19.59279 51.9314,36.55439 54.0579,37.69241 3.4343,1.83803 3.8662,4.46132 3.8662,23.48294 v 21.41378 l -8.6233,8.62335 c -11.045,11.04496 -22.0248,14.3665 -36.2276,10.95932 -11.1821,-2.68255 -8.7238,-1.08627 -91.3338,-59.3075 -59.2844,-41.78206 -59.9008,-42.29004 -58.8542,-48.50051 2.1555,-12.79128 21.2389,-194.07996 21.0632,-200.09754 l -0.1823,-6.24327 -1.6404,6.06256 c -2.5073,9.26601 -22.9934,204.29401 -21.7891,207.43242 1.4805,3.85826 123.8387,90.22259 139.1575,98.22184 20.1215,10.50715 36.4572,8.90762 50.7401,-4.96827 l 7.4665,-7.25372 -0.8642,17.98353 c -0.4754,9.89093 -1.2991,51.63073 -1.8305,92.75512 l -0.9663,74.77164 -9.0392,18.1877 c -4.9889,10.0381 -13.7808,23.4862 -19.6211,30.0126 l -10.582,11.825 -20.9994,-59.3151 c -18.8425,-53.22255 -24.7915,-67.85366 -24.7915,-60.97303 0,2.03207 6.8222,21.82303 31.9441,92.66893 l 10.058,28.3645 -18.475,7.3199 c -17.8789,7.0838 -37.6886,10.4761 -49.7982,8.5278 z"
       id="path4745"
       inkscape:connector-curvature="0"
       transform="scale(0.26458333)"
       inkscape:export-xdpi="96"
       inkscape:export-ydpi="96" />
    <path
       style="opacity:1;fill:#ff0000;fill-opacity:1;stroke:#000000;stroke-width:15.27575111;stroke-miterlimit:4;stroke-dasharray:none;stroke-opacity:1"
       d="m 1828.8365,485.47486 c -12.8992,-2.53136 -35.7299,-11.47943 -49.2786,-19.31377 -25.1366,-14.53502 -41.6031,-28.54389 -51.6605,-43.95026 -45.3294,-69.43766 -18.3252,-159.63748 59.3436,-198.22037 27.7461,-13.78318 39.0895,-16.20949 75.7821,-16.20949 36.8807,0 48.4814,2.47378 75.782,16.16012 40.9541,20.53109 70.2682,56.96874 79.0742,98.2897 6.8581,32.18105 -0.6572,70.91407 -19.2116,99.0141 -8.8665,13.42797 -24.0721,30.04905 -27.4902,30.04905 -0.7322,0 -5.4254,2.81675 -10.4292,6.25946 -13.7395,9.45307 -44.6905,23.50999 -59.3971,26.97624 -14.3317,3.37792 -57.2664,3.93758 -72.5147,0.94522 z"
       id="path4747"
       inkscape:connector-curvature="0"
       transform="scale(0.26458333)"
       inkscape:export-xdpi="96"
       inkscape:export-ydpi="96" />
    <path
       style="opacity:1;fill:#ff0000;fill-opacity:1;stroke:#000000;stroke-width:15.27575111;stroke-miterlimit:4;stroke-dasharray:none;stroke-opacity:1"
       d="m 1919.7065,1419.5144 c -6.0583,-2.1595 -12.0433,-5.3325 -13.3,-7.0511 -1.7791,-2.4331 0.072,-11.3768 8.3648,-40.407 11.1513,-39.0383 23.6522,-96.5165 31.043,-142.7333 2.3996,-15.0049 4.8115,-28.628 5.36,-30.2736 0.5484,-1.6456 8.5579,16.5421 17.7988,40.4171 9.241,23.875 22.4652,57.5046 29.3871,74.7323 l 12.5852,31.3233 -2.4166,11.1147 c -5.58,25.6643 -24.2935,51.3918 -44.2135,60.785 -13.1172,6.1854 -30.7996,7.0149 -44.6088,2.0926 z"
       id="path4749"
       inkscape:connector-curvature="0"
       transform="scale(0.26458333)"
       inkscape:export-xdpi="96"
       inkscape:export-ydpi="96" />
    <path
       style="opacity:1;fill:#ff0000;fill-opacity:1;stroke:#000000;stroke-width:15.27575111;stroke-miterlimit:4;stroke-dasharray:none;stroke-opacity:1"
       d="m 1954.121,1135.1848 c 0.097,-2.3542 0.5759,-2.833 1.221,-1.2209 0.5837,1.4588 0.512,3.2018 -0.1596,3.8733 -0.6715,0.6715 -1.1491,-0.5221 -1.0614,-2.6524 z"
       id="path4751"
       inkscape:connector-curvature="0"
       transform="scale(0.26458333)"
       inkscape:export-xdpi="96"
       inkscape:export-ydpi="96" />
    <path
       style="opacity:1;fill:#ff0000;fill-opacity:1;stroke:#000000;stroke-width:15.27575111;stroke-miterlimit:4;stroke-dasharray:none;stroke-opacity:1"
       d="m 1788.4387,1156.4497 c -8.1269,-24.8381 -15.2648,-46.4333 -15.8619,-47.9893 -0.5971,-1.5561 3.3675,0.3413 8.8101,4.2164 5.4427,3.8751 14.7321,9.4726 20.6431,12.4388 9.7213,4.8783 10.6439,5.9138 9.6651,10.8467 -0.5952,2.9994 -2.5264,18.1849 -4.2916,33.7454 -1.7652,15.5606 -3.4298,29.1043 -3.6991,30.0971 -0.2692,0.9928 -7.1388,-18.517 -15.2657,-43.3551 z"
       id="path4755"
       inkscape:connector-curvature="0"
       transform="scale(0.26458333)"
       inkscape:export-xdpi="96"
       inkscape:export-ydpi="96" />
    <path
       style="opacity:1;fill:#ff0000;fill-opacity:1;stroke:#000000;stroke-width:15.27575111;stroke-miterlimit:4;stroke-dasharray:none;stroke-opacity:1"
       d=""
       id="path4757"
       inkscape:connector-curvature="0"
       transform="scale(0.26458333)" />
    <path
       style="opacity:1;fill:#ff0000;fill-opacity:1;stroke:#000000;stroke-width:15.27575111;stroke-miterlimit:4;stroke-dasharray:none;stroke-opacity:1"
       d="m 1941.2615,1139.2505 -7.6479,-21.0842 10.1802,-12.2327 c 5.5991,-6.728 11.6085,-14.9948 13.3542,-18.3707 1.7458,-3.3758 3.5255,-5.7866 3.9549,-5.3571 1.382,1.382 -5.7757,40.9975 -7.5358,41.7079 -7.2748,2.9365 -10.087,13.805 -4.9112,18.9808 1.8813,1.8813 2.3705,5.1439 1.5157,10.109 -1.2169,7.0676 -1.5372,6.5731 -8.9101,-13.753 z"
       id="path4759"
       inkscape:connector-curvature="0"
       transform="scale(0.26458333)"
       inkscape:export-xdpi="96"
       inkscape:export-ydpi="96" />
    <path
       style="opacity:1;fill:#ff0000;fill-opacity:1;stroke:#000000;stroke-width:15.27575111;stroke-miterlimit:4;stroke-dasharray:none;stroke-opacity:1"
       d="m 2309.0046,1274.991 c -6.1473,-22.8599 -11.5862,-36.2985 -31.6888,-78.298 -13.3473,-27.8859 -24.2678,-51.9401 -24.2678,-53.4538 0,-2.6482 6.0038,-19.0007 6.976,-19.0007 0.2611,0 5.5072,1.7314 11.658,3.8476 42.6596,14.6771 83.1708,7.2578 114.3937,-20.9503 7.2496,-6.5495 8.231,-6.9229 9.3047,-3.5402 0.7561,2.3822 -13.0821,38.4975 -37.3945,97.5934 -21.2271,51.5964 -39.262,95.5187 -40.0775,97.605 -1.031,2.6377 -3.7435,-4.6139 -8.9038,-23.803 z"
       id="path4761"
       inkscape:connector-curvature="0"
       transform="scale(0.26458333)"
       inkscape:export-xdpi="96"
       inkscape:export-ydpi="96" />
    <path
       style="opacity:1;fill:#ff0000;fill-opacity:1;stroke:#000000;stroke-width:15.27575111;stroke-miterlimit:4;stroke-dasharray:none;stroke-opacity:1"
       d="m 2180.8274,1432.76 c -9.9893,-10.8372 -15.7815,-25.9159 -18.8699,-49.1236 -4.6614,-35.0283 -3.8805,-37.7129 28.32,-97.3574 22.299,-41.3043 31.3328,-60.468 41.8006,-88.6733 7.3446,-19.7897 13.9831,-37.66 14.7521,-39.7116 1.0211,-2.7241 6.197,6.5424 19.1891,34.3545 21.5273,46.0835 28.451,63.0285 34.9576,85.5551 2.732,9.4583 6.7868,20.4524 9.0108,24.4313 l 4.0435,7.2342 -29.3036,58.5804 c -28.9724,57.918 -29.4259,58.6645 -40.1082,66.0217 l -10.8045,7.4414 h -22.4598 -22.4597 z"
       id="path4763"
       inkscape:connector-curvature="0"
       transform="scale(0.26458333)"
       inkscape:export-xdpi="96"
       inkscape:export-ydpi="96" />
    <path
       style="opacity:1;fill:#ff0000;fill-opacity:1;stroke:#000000;stroke-width:15.27575111;stroke-miterlimit:4;stroke-dasharray:none;stroke-opacity:1"
       d="m 2405.6225,1400.2304 c -22.5992,-6.396 -45.7678,-19.6826 -66.2435,-37.9888 -8.931,-7.9846 -10.036,-10.0566 -14.6489,-27.4662 -3.7234,-14.0526 -4.4591,-19.8207 -2.8996,-22.7346 1.1493,-2.1475 1.4916,-3.9045 0.7606,-3.9045 -0.7309,0 -0.4067,-1.1367 0.7205,-2.5261 2.1598,-2.6621 60.5352,-144.964 70.456,-171.7507 3.1858,-8.6019 6.328,-15.6496 6.9826,-15.6616 3.5202,-0.065 45.3985,107.0258 59.6564,152.5526 l 15.8222,50.5213 0.062,23.2399 c 0.059,22.3196 -0.1867,23.6799 -6.2151,34.3545 -8.9456,15.84 -20.384,22.6165 -39.7204,23.5317 -8.6472,0.4092 -18.7597,-0.477 -24.7326,-2.1675 z"
       id="path4765"
       inkscape:connector-curvature="0"
       transform="scale(0.26458333)"
       inkscape:export-xdpi="96"
       inkscape:export-ydpi="96" />
    <path
       style="opacity:1;fill:#ff0000;fill-opacity:1;stroke:#000000;stroke-width:15.27575111;stroke-miterlimit:4;stroke-dasharray:none;stroke-opacity:1"
       d="m 2278.8139,1121.6483 c -8.6139,-2.3399 -15.6616,-5.0117 -15.6616,-5.9373 0,-0.9256 10.9126,-31.1901 24.2502,-67.2545 13.3377,-36.0644 24.2503,-66.6868 24.2503,-68.04974 0,-6.91771 -5.7447,6.88782 -28.3164,68.04974 -13.5362,36.6785 -24.8947,66.9826 -25.2412,67.3424 -0.9892,1.0273 -13.4585,-5.6724 -20.8284,-11.1911 -5.0706,-3.797 -10.5668,-13.0954 -22.7346,-38.4622 l -16.0473,-33.4546 V 742.90077 453.11059 l 12.8097,9.14081 c 42.4339,30.28018 95.2032,39.74204 147.1144,26.37847 16.042,-4.12971 41.9882,-16.32057 55.2969,-25.98133 l 10.1043,-7.33467 0.5017,18.7038 c 0.8906,33.19835 -4.5405,334.62777 -6.0565,336.14377 -1.5457,1.54573 -4.1472,-0.19117 -65.2645,-43.57619 l -38.4856,-27.31953 10.4058,-79.82376 c 5.7232,-43.90306 10.083,-80.20266 9.6884,-80.66578 -0.3945,-0.46311 -1.1869,-0.37244 -1.7608,0.20148 -0.9929,0.9929 -21.1753,152.8341 -21.1825,159.36548 0,2.87822 94.7996,71.75802 103.3969,75.12387 3.2811,1.28458 3.705,4.00043 3.705,23.7392 v 22.28872 l -7.2063,7.97651 c -8.7012,9.63117 -17.9386,13.00513 -32.337,11.81111 -13.0086,-1.07877 -10.6668,0.37085 -91.8359,-56.84763 -49.3236,-34.76957 -62.6158,-45.06971 -62.5893,-48.50051 0.018,-2.39572 4.9893,-49.78005 11.0464,-105.29851 6.057,-55.51844 10.5889,-101.36658 10.0707,-101.88475 -0.5182,-0.51816 -1.2971,-0.56321 -1.7309,-0.10009 -1.9199,2.04947 -23.4677,212.79812 -21.8665,213.86467 0.981,0.65336 30.0599,21.1944 64.62,45.64674 69.3401,49.06038 83.6551,57.61763 96.2721,57.54997 10.1519,-0.0544 23.7473,-5.99094 30.5633,-13.3456 l 5.0941,-5.49662 -1.3462,90.78269 c -1.2314,83.03729 -1.6801,91.64479 -5.2587,100.88699 -4.769,12.3163 -15.441,31.3232 -17.5873,31.3232 -0.861,0 -10.4587,-21.1432 -21.3283,-46.9848 -22.0331,-52.3823 -25.6359,-60.07254 -26.6876,-56.96536 -0.3993,1.17959 9.394,26.07526 21.7628,55.32376 l 22.4887,53.179 -5.7754,4.9063 c -12.7073,10.7951 -30.407,21.1214 -42.7231,24.9255 -17.3192,5.3494 -42.5672,5.1114 -63.5898,-0.5992 z"
       id="path4767"
       inkscape:connector-curvature="0"
       transform="scale(0.26458333)"
       inkscape:export-xdpi="96"
       inkscape:export-ydpi="96" />
    <path
       style="opacity:1;fill:#ff0000;fill-opacity:1;stroke:#000000;stroke-width:15.27575111;stroke-miterlimit:4;stroke-dasharray:none;stroke-opacity:1"
       d="m 2277.7861,482.59708 c -25.894,-5.93032 -47.4758,-16.49039 -74.4101,-36.40931 -30.8371,-22.80504 -47.736,-58.19825 -47.736,-99.97827 0,-38.25918 12.4567,-66.90349 41.8804,-96.30453 16.2534,-16.24092 21.0858,-19.73895 39.5478,-28.62765 29.6253,-14.26335 43.3781,-17.3536 76.6054,-17.21321 23.6225,0.0998 29.7209,0.84897 45.4692,5.58564 29.4117,8.84624 47.7817,19.66654 68.8754,40.56916 15.0166,14.88052 19.8819,21.31114 26.7563,35.36496 11.0259,22.54114 14.5049,37.08219 14.5049,60.62563 0,29.89586 -8.93,57.09054 -26.3031,80.101 -14.811,19.61706 -57.5205,46.01848 -88.0367,54.42103 -16.6345,4.58027 -60.6527,5.64461 -77.1535,1.86555 z"
       id="path4769"
       inkscape:connector-curvature="0"
       transform="scale(0.26458333)"
       inkscape:export-xdpi="96"
       inkscape:export-ydpi="96" />
    <path
       style="opacity:1;fill:#ff0000;fill-opacity:1;stroke:#000000;stroke-width:15.27575111;stroke-miterlimit:4;stroke-dasharray:none;stroke-opacity:1"
       d="m 2725.3901,486.62935 c -61.1116,-11.59071 -109.2566,-54.7189 -122.9151,-110.10703 -3.4968,-14.18038 -3.53,-46.23559 -0.063,-60.62563 3.9518,-16.40113 16.8023,-41.74039 28.3208,-55.84464 5.5681,-6.81795 16.306,-17.07591 23.8622,-22.79548 88.2541,-66.8034 219.7505,-30.72821 253.5006,69.54627 4.0774,12.11428 4.7398,17.91915 4.6121,40.41709 -0.1301,22.93539 -0.8177,28.15321 -5.4147,41.09393 -20.8806,58.77968 -77.0353,97.96174 -143.9794,100.46194 -14.4871,0.54105 -27.6956,-0.20653 -37.9237,-2.14645 z"
       id="path4771"
       inkscape:connector-curvature="0"
       transform="scale(0.26458333)"
       inkscape:export-xdpi="96"
       inkscape:export-ydpi="96" />
    <path
       style="opacity:1;fill:#ff0000;fill-opacity:1;stroke:#000000;stroke-width:15.27575111;stroke-miterlimit:4;stroke-dasharray:none;stroke-opacity:1"
       d="m 2739.0635,1128.9515 c -15.5964,-3.3989 -31.3232,-9.2473 -31.3232,-11.6484 0,-1.5275 2.7714,-22.9801 6.1588,-47.6724 5.4284,-39.5711 6.1016,-49.4237 3.1612,-46.2665 -0.4313,0.4631 -3.6203,21.6882 -7.0866,47.1669 -3.4664,25.4787 -6.6132,46.6357 -6.993,47.0155 -1.5395,1.5395 -31.1754,-19.6727 -38.9996,-27.9143 -7.3176,-7.7082 -9.1729,-11.6931 -14.4658,-31.0716 l -6.0717,-22.2294 -1.1155,-290.50265 -1.1155,-290.50272 10.5292,7.92951 c 22.2951,16.79034 52.2383,28.74984 81.8464,32.68994 42.5925,5.668 94.7743,-7.37861 126.4676,-31.61972 l 9.8453,-7.53032 -1.2451,50.29674 c -0.6847,27.6632 -1.7136,86.67211 -2.2863,131.13091 -1.4503,112.58757 -3.2203,172.78307 -5.0806,172.78307 -1.1116,0 -98.389,-67.90587 -102.3778,-71.46619 -0.1984,-0.17703 4.1193,-34.86785 9.5948,-77.09055 10.2602,-79.1179 10.9169,-85.46801 8.6,-83.15113 -0.7502,0.75022 -6.0314,37.36441 -11.7361,81.36486 l -10.3721,80.00084 6.1788,4.59308 c 21.5051,15.98613 98.8836,69.7908 100.3688,69.7908 0.9903,0 1.8006,9.79603 1.8006,21.76897 0,21.14947 -0.1706,21.97582 -5.9925,29.03887 -3.2959,3.99844 -9.117,8.75256 -12.9358,10.5647 -8.6078,4.08469 -23.3847,4.24564 -32.6937,0.3561 -4.8051,-2.00772 -139.1464,-94.56076 -143.5862,-98.92225 -0.1076,-0.10571 4.9604,-47.02551 11.2622,-104.26621 10.3609,-94.10982 11.6284,-109.25487 8.9169,-106.54336 -0.8673,0.86728 -22.9846,201.48486 -23.0037,208.65774 -0.01,3.10111 17.0098,16.07481 69.6963,53.13278 38.339,26.9664 73.4646,50.35549 78.057,51.97577 16.168,5.70443 31.2484,2.38441 43.6387,-9.60732 l 6.4948,-6.28585 -0.9518,48.32102 c -0.5234,26.57654 -1.3647,68.23831 -1.8694,92.58167 l -0.9175,44.2608 -7.2911,15.3545 c -9.4962,19.9982 -20.594,34.491 -34.3843,44.9028 -6.1221,4.6222 -11.4512,8.0491 -11.8425,7.6155 -0.3913,-0.4337 -7.3066,-27.8427 -15.3675,-60.9089 -8.0608,-33.0662 -15.4463,-60.12042 -16.4122,-60.12042 -2.4724,0 -3.0898,-2.96389 13.174,63.23892 16.8258,68.4905 17.3455,61.7542 -5.1733,67.063 -11.9931,2.8273 -34.0007,3.708 -43.101,1.7249 z"
       id="path4773"
       inkscape:connector-curvature="0"
       transform="scale(0.26458333)"
       inkscape:export-xdpi="96"
       inkscape:export-ydpi="96" />
    <path
       style="opacity:1;fill:#ff0000;fill-opacity:1;stroke:#000000;stroke-width:15.27575111;stroke-miterlimit:4;stroke-dasharray:none;stroke-opacity:1"
       d="m 2726.5137,1386.6449 c -1.2487,-1.5045 -5.536,-29.1056 -9.5275,-61.3358 -6.004,-48.4807 -8.6052,-63.1494 -15.0632,-84.943 l -7.8059,-26.3427 5.7249,-41.3559 c 3.1487,-22.7458 5.7592,-42.5161 5.8012,-43.934 0.06,-2.0405 1.2348,-1.9959 5.6336,0.2137 3.0565,1.5354 11.6915,4.4208 19.1889,6.4119 16.7765,4.4555 45.2892,3.3342 62.4393,-2.4557 l 11.3842,-3.8433 11.5613,47.2981 11.5613,47.2981 -3.3453,18.4949 c -1.84,10.1723 -9.8269,40.1587 -17.7488,66.6365 -14.1619,47.3341 -14.5569,48.2928 -23.5548,57.1636 -15.9691,15.7435 -49.9748,28.2539 -56.2492,20.6936 z"
       id="path4775"
       inkscape:connector-curvature="0"
       transform="scale(0.26458333)"
       inkscape:export-xdpi="96"
       inkscape:export-ydpi="96" />
    <path
       style="opacity:1;fill:#ff0000;fill-opacity:1;stroke:#000000;stroke-width:15.27575111;stroke-miterlimit:4;stroke-dasharray:none;stroke-opacity:1"
       d="m 2821.0374,1162.2427 -8.7185,-36.7673 5.8103,-4.7852 c 12.1306,-9.9905 23.6111,-21.731 28.5549,-29.2015 2.8205,-4.2622 5.5193,-7.3584 5.9972,-6.8805 1.2649,1.2649 -20.153,114.4019 -21.6574,114.4019 -0.6974,0 -5.1913,-16.5453 -9.9865,-36.7674 z"
       id="path4777"
       inkscape:connector-curvature="0"
       transform="scale(0.26458333)"
       inkscape:export-xdpi="96"
       inkscape:export-ydpi="96" />
    <path
       style="opacity:1;fill:#ff0000;fill-opacity:1;stroke:#000000;stroke-width:15.27575111;stroke-miterlimit:4;stroke-dasharray:none;stroke-opacity:1"
       d="m 2775.0836,1426.5973 c -11.5687,-3.7801 -20.297,-9.4969 -30.6113,-20.0496 l -8.7372,-8.9392 9.4724,-2.3852 c 24.1686,-6.0857 47.1062,-22.7455 54.518,-39.5969 4.781,-10.8702 17.5481,-52.9463 26.98,-88.9176 5.2796,-20.1349 5.9517,-21.563 7.1338,-15.1564 0.7178,3.8901 4.949,30.2623 9.4027,58.6047 7.181,45.698 7.8309,52.6757 5.7408,61.6361 -5.0196,21.5189 -20.7459,43.6691 -36.8303,51.8748 -10.1466,5.1763 -26.2883,6.4519 -37.0689,2.9293 z"
       id="path4779"
       inkscape:connector-curvature="0"
       transform="scale(0.26458333)"
       inkscape:export-xdpi="96"
       inkscape:export-ydpi="96" />
    <path
       style="opacity:1;fill:#ff0000;fill-opacity:1;stroke:#000000;stroke-width:15.27575111;stroke-miterlimit:4;stroke-dasharray:none;stroke-opacity:1"
       d="m 2709.5232,1386.0883 c -21.7043,-7.4823 -37.9541,-25.3273 -47.3731,-52.0237 -2.6797,-7.5952 -2.3296,-9.0507 12.7918,-53.18 8.5509,-24.9541 16.1455,-44.7178 16.8769,-43.9194 2.5826,2.8189 9.7456,38.2115 13.9951,69.1502 2.3663,17.2278 5.9809,42.6751 8.0325,56.5496 2.0516,13.8744 3.5631,25.3877 3.3589,25.585 -0.2041,0.1973 -3.6611,-0.7755 -7.6821,-2.1617 z"
       id="path4781"
       inkscape:connector-curvature="0"
       transform="scale(0.26458333)"
       inkscape:export-xdpi="96"
       inkscape:export-ydpi="96" />
    <path
       style="opacity:1;fill:#ff0000;fill-opacity:1;stroke:#000000;stroke-width:15.27575111;stroke-miterlimit:4;stroke-dasharray:none;stroke-opacity:1"
       d="m 2675.5695,1148.956 c -7.0871,-24.7511 -12.2929,-45.5947 -11.5685,-46.3192 0.7245,-0.7245 3.3598,0.542 5.8562,2.8145 2.4964,2.2724 9.781,7.5667 16.188,11.7649 l 11.649,7.6332 -1.3575,10.304 c -0.7467,5.6673 -2.8254,21.2167 -4.6195,34.5543 l -3.2619,24.2503 z"
       id="path4783"
       inkscape:connector-curvature="0"
       transform="scale(0.26458333)"
       inkscape:export-xdpi="96"
       inkscape:export-ydpi="96" />
  </g>
</svg>
