<?xml version="1.0" encoding="UTF-8" standalone="no"?>
<!-- Created with Inkscape (http://www.inkscape.org/) -->

<svg
   xmlns:osb="http://www.openswatchbook.org/uri/2009/osb"
   xmlns:dc="http://purl.org/dc/elements/1.1/"
   xmlns:cc="http://creativecommons.org/ns#"
   xmlns:rdf="http://www.w3.org/1999/02/22-rdf-syntax-ns#"
   xmlns:svg="http://www.w3.org/2000/svg"
   xmlns="http://www.w3.org/2000/svg"
   xmlns:xlink="http://www.w3.org/1999/xlink"
   xmlns:sodipodi="http://sodipodi.sourceforge.net/DTD/sodipodi-0.dtd"
   xmlns:inkscape="http://www.inkscape.org/namespaces/inkscape"
   width="210mm"
   height="297mm"
   viewBox="0 0 210 297"
   version="1.1"
   id="svg18"
   inkscape:version="0.92.1 r15371"
   sodipodi:docname="testDrawing.svg">
  <defs
     id="defs12">
    <linearGradient
       id="linearGradient979"
       osb:paint="solid">
      <stop
         style="stop-color:#000000;stop-opacity:1;"
         offset="0"
         id="stop977" />
    </linearGradient>
    <linearGradient
       id="linearGradient973"
       osb:paint="solid">
      <stop
         style="stop-color:#000000;stop-opacity:1;"
         offset="0"
         id="stop971" />
    </linearGradient>
    <linearGradient
       id="linearGradient967"
       osb:paint="solid">
      <stop
         style="stop-color:#000000;stop-opacity:1;"
         offset="0"
         id="stop965" />
    </linearGradient>
    <linearGradient
       id="linearGradient961"
       osb:paint="solid">
      <stop
         style="stop-color:#000000;stop-opacity:1;"
         offset="0"
         id="stop959" />
    </linearGradient>
    <linearGradient
       id="linearGradient955"
       osb:paint="solid">
      <stop
         style="stop-color:#000000;stop-opacity:1;"
         offset="0"
         id="stop953" />
    </linearGradient>
    <linearGradient
       id="linearGradient949"
       osb:paint="solid">
      <stop
         style="stop-color:#000000;stop-opacity:1;"
         offset="0"
         id="stop947" />
    </linearGradient>
    <linearGradient
       id="linearGradient943"
       osb:paint="solid">
      <stop
         style="stop-color:#000000;stop-opacity:1;"
         offset="0"
         id="stop941" />
    </linearGradient>
    <linearGradient
       id="linearGradient937"
       osb:paint="solid">
      <stop
         style="stop-color:#000000;stop-opacity:1;"
         offset="0"
         id="stop935" />
    </linearGradient>
    <linearGradient
       id="linearGradient931"
       osb:paint="solid">
      <stop
         style="stop-color:#000000;stop-opacity:1;"
         offset="0"
         id="stop929" />
    </linearGradient>
    <linearGradient
       inkscape:collect="always"
       xlink:href="#linearGradient937"
       id="linearGradient939"
       x1="-241.40212"
       y1="27.388548"
       x2="-193.63056"
       y2="27.388548"
       gradientUnits="userSpaceOnUse"
       gradientTransform="translate(-37.866972,-12.622324)" />
    <linearGradient
       inkscape:collect="always"
       xlink:href="#linearGradient943"
       id="linearGradient945"
       x1="-244.73859"
       y1="147.21584"
       x2="-217.69653"
       y2="147.21584"
       gradientUnits="userSpaceOnUse"
       gradientTransform="matrix(0.30077129,0,0,1.5287219,-190.45124,-84.164758)" />
    <linearGradient
       inkscape:collect="always"
       xlink:href="#linearGradient949"
       id="linearGradient951"
       x1="-218.78739"
       y1="148.31169"
       x2="-193.84095"
       y2="148.31169"
       gradientUnits="userSpaceOnUse"
       gradientTransform="matrix(0.41467736,0,0,1.4315117,-165.65977,-71.969635)" />
    <linearGradient
       inkscape:collect="always"
       xlink:href="#linearGradient955"
       id="linearGradient957"
       x1="-218.99005"
       y1="89.997869"
       x2="-216.64745"
       y2="89.997869"
       gradientUnits="userSpaceOnUse"
       gradientTransform="translate(-37.866972,-12.622324)" />
    <linearGradient
       inkscape:collect="always"
       xlink:href="#linearGradient961"
       id="linearGradient963"
       x1="-305.66083"
       y1="27.377089"
       x2="-257.88928"
       y2="27.377089"
       gradientUnits="userSpaceOnUse"
       gradientTransform="translate(-23.441459,-12.982962)" />
    <linearGradient
       inkscape:collect="always"
       xlink:href="#linearGradient967"
       id="linearGradient969"
       x1="-297.98496"
       y1="152.97458"
       x2="-281.78784"
       y2="152.97458"
       gradientUnits="userSpaceOnUse"
       gradientTransform="matrix(1.1588213,0,0,1.0488741,21.336444,-19.557863)" />
    <linearGradient
       inkscape:collect="always"
       xlink:href="#linearGradient973"
       id="linearGradient975"
       x1="-283.14212"
       y1="153.57983"
       x2="-267.23629"
       y2="153.57983"
       gradientUnits="userSpaceOnUse"
       gradientTransform="matrix(0.9992053,0,0,1.0295166,-23.660152,-16.975154)" />
    <linearGradient
       inkscape:collect="always"
       xlink:href="#linearGradient979"
       id="linearGradient981"
       x1="-283.24878"
       y1="89.986407"
       x2="-280.90618"
       y2="89.986407"
       gradientUnits="userSpaceOnUse"
       gradientTransform="translate(-23.441459,-12.982962)" />
    <linearGradient
       inkscape:collect="always"
       xlink:href="#linearGradient979"
       id="linearGradient951-7"
       x1="-218.78738"
       y1="148.31169"
       x2="-193.84094"
       y2="148.31169"
       gradientUnits="userSpaceOnUse"
       gradientTransform="matrix(-0.12475623,0,0,1.4409682,-226.77217,-73.304383)" />
    <linearGradient
       inkscape:collect="always"
       xlink:href="#linearGradient979"
       id="linearGradient945-3"
       x1="-244.73859"
       y1="147.21584"
       x2="-217.69653"
       y2="147.21584"
       gradientUnits="userSpaceOnUse"
       gradientTransform="matrix(-0.21331634,0,0,1.519842,-245.67724,-83.266597)" />
    <linearGradient
       inkscape:collect="always"
       xlink:href="#linearGradient979"
       id="linearGradient957-1"
       x1="-218.99005"
       y1="89.997871"
       x2="-216.64745"
       y2="89.997871"
       gradientUnits="userSpaceOnUse"
       gradientTransform="translate(19.526179,-12.55457)" />
    <linearGradient
       inkscape:collect="always"
       xlink:href="#linearGradient979"
       id="linearGradient939-5"
       x1="-241.40211"
       y1="27.388548"
       x2="-193.63055"
       y2="27.388548"
       gradientUnits="userSpaceOnUse"
       gradientTransform="translate(19.526179,-12.55457)" />
    <linearGradient
       inkscape:collect="always"
       xlink:href="#linearGradient979"
       id="linearGradient951-8"
       x1="-218.78738"
       y1="148.31169"
       x2="-193.84094"
       y2="148.31169"
       gradientUnits="userSpaceOnUse"
       gradientTransform="matrix(0.41467735,0,0,1.4315117,-58.137952,-71.90188)" />
    <linearGradient
       inkscape:collect="always"
       xlink:href="#linearGradient979"
       id="linearGradient945-8"
       x1="-244.73859"
       y1="147.21584"
       x2="-217.69653"
       y2="147.21584"
       gradientUnits="userSpaceOnUse"
       gradientTransform="matrix(0.30077129,0,0,1.5287219,-82.929425,-84.097002)" />
    <linearGradient
       inkscape:collect="always"
       xlink:href="#linearGradient979"
       id="linearGradient957-12"
       x1="-218.99005"
       y1="89.997871"
       x2="-216.64745"
       y2="89.997871"
       gradientUnits="userSpaceOnUse"
       gradientTransform="translate(69.654838,-12.554569)" />
    <linearGradient
       inkscape:collect="always"
       xlink:href="#linearGradient979"
       id="linearGradient939-1"
       x1="-241.40211"
       y1="27.388548"
       x2="-193.63055"
       y2="27.388548"
       gradientUnits="userSpaceOnUse"
       gradientTransform="translate(69.654838,-12.554569)" />
    <linearGradient
       inkscape:collect="always"
       xlink:href="#linearGradient979"
       id="linearGradient975-7"
       x1="-283.14212"
       y1="153.57983"
       x2="-267.2363"
       y2="153.57983"
       gradientUnits="userSpaceOnUse"
       gradientTransform="matrix(0.9992053,0,0,1.0295166,182.38096,-16.872647)" />
    <linearGradient
       inkscape:collect="always"
       xlink:href="#linearGradient979"
       id="linearGradient969-7"
       x1="-297.98495"
       y1="152.97458"
       x2="-281.78784"
       y2="152.97458"
       gradientUnits="userSpaceOnUse"
       gradientTransform="matrix(1.1588213,0,0,1.0488741,227.37756,-19.455356)" />
    <linearGradient
       inkscape:collect="always"
       xlink:href="#linearGradient979"
       id="linearGradient981-2"
       x1="-283.24878"
       y1="89.986404"
       x2="-280.90619"
       y2="89.986404"
       gradientUnits="userSpaceOnUse"
       gradientTransform="translate(182.59966,-12.880456)" />
    <linearGradient
       inkscape:collect="always"
       xlink:href="#linearGradient979"
       id="linearGradient963-6"
       x1="-305.66083"
       y1="27.377089"
       x2="-257.88928"
       y2="27.377089"
       gradientUnits="userSpaceOnUse"
       gradientTransform="translate(182.59966,-12.880456)" />
    <linearGradient
       inkscape:collect="always"
       xlink:href="#linearGradient979"
       id="linearGradient981-9"
       x1="-283.24878"
       y1="89.986404"
       x2="-280.90619"
       y2="89.986404"
       gradientUnits="userSpaceOnUse"
       gradientTransform="translate(26.326886,-13.56945)" />
    <linearGradient
       inkscape:collect="always"
       xlink:href="#linearGradient979"
       id="linearGradient981-1"
       x1="-283.24878"
       y1="89.986404"
       x2="-280.90619"
       y2="89.986404"
       gradientUnits="userSpaceOnUse"
       gradientTransform="translate(83.784904,-12.543105)" />
    <linearGradient
       inkscape:collect="always"
       xlink:href="#linearGradient979"
       id="linearGradient981-4"
       x1="-283.24878"
       y1="89.986404"
       x2="-280.90619"
       y2="89.986404"
       gradientUnits="userSpaceOnUse"
       gradientTransform="translate(133.91356,-12.543116)" />
    <linearGradient
       inkscape:collect="always"
       xlink:href="#linearGradient979"
       id="linearGradient981-48"
       x1="-283.24878"
       y1="89.986404"
       x2="-280.90619"
       y2="89.986404"
       gradientUnits="userSpaceOnUse"
       gradientTransform="translate(182.59968,-12.880453)" />
  </defs>
  <sodipodi:namedview
     id="base"
     pagecolor="#00ff00"
     bordercolor="#666666"
     borderopacity="1.0"
     inkscape:pageopacity="0"
     inkscape:pageshadow="2"
     inkscape:zoom="0.73365385"
     inkscape:cx="-788.02205"
     inkscape:cy="722.85714"
     inkscape:document-units="mm"
     inkscape:current-layer="layer1"
     showgrid="false"
     inkscape:window-width="1920"
     inkscape:window-height="986"
     inkscape:window-x="-11"
     inkscape:window-y="-11"
     inkscape:window-maximized="1" />
  <metadata
     id="metadata15">
    <rdf:RDF>
      <cc:Work
         rdf:about="">
        <dc:format>image/svg+xml</dc:format>
        <dc:type
           rdf:resource="http://purl.org/dc/dcmitype/StillImage" />
        <dc:title />
      </cc:Work>
    </rdf:RDF>
  </metadata>
  <g
     inkscape:label="Layer 1"
     inkscape:groupmode="layer"
     id="layer1">
    <path
       style="opacity:0;fill:#00ff00;fill-opacity:0;stroke:#000000;stroke-width:0.05926667;stroke-miterlimit:4;stroke-dasharray:none;stroke-opacity:1"
       id="path827"
       d="m -268.0226,-9.3479584 c -0.7743,2.928948 -1.01975,5.959861 -1.45978,8.94961902 -0.36492,2.39832098 -0.5572,4.81693998 -0.65382,7.23944898 -0.0516,1.593594 -0.0466,3.1882374 -0.044,4.7824394 -0.26008,3.96788 -0.54525,7.938339 -0.7145,11.915534 -0.38394,10.140691 -0.19832,20.295715 0.1205,30.435495 0.25506,9.70087 0.87892,19.38308 1.49291,29.06585 0.30263,4.35852 0.46404,8.72369 0.55824,13.09097 0.0314,2.27177 0.0513,4.543672 0.0606,6.815632 -0.0107,1.76771 -0.004,3.53547 -0.001,5.3032 0.005,1.84919 -0.0109,3.69834 -0.0204,5.5475 -0.002,2.22663 -0.007,4.45322 0.002,6.67984 -0.009,1.88327 0.0709,3.769 -0.0549,5.64906 -0.23898,1.69907 -0.4619,3.39666 -0.59443,5.10766 -0.19828,3.73344 -0.1975,7.47371 -0.19719,11.21131 -0.18445,3.90815 0.0974,7.75017 0.68716,11.60677 0.42861,2.52988 0.70378,5.08193 0.85878,7.64226 0.0864,1.63248 0.0888,3.26762 0.0895,4.90188 -0.002,1.50311 -0.006,3.00622 -0.008,4.50933 -2.4e-4,0.25109 -5.3e-4,0.50218 -7.9e-4,0.75327 0,0 -9.99165,5.09004 -9.99165,5.09004 v 0 c 1.4e-4,-0.25117 2.7e-4,-0.50234 5.3e-4,-0.75352 0.001,-1.50332 0.003,-3.00665 0.009,-4.50996 0.005,-1.62324 0.0149,-3.24688 -0.03,-4.8697 -0.0929,-2.54444 -0.30146,-5.08314 -0.69903,-7.5998 -0.26523,-1.80186 -0.61589,-3.62918 -0.70364,-5.45112 -0.10155,-2.1082 0.1078,-4.23137 0.0147,-6.34054 0.007,-3.72321 -0.0344,-7.4461 -0.0171,-11.16907 0.0546,-1.73013 0.26201,-3.44471 0.56652,-5.14898 0.24675,-1.84039 0.0508,-3.70896 0.12593,-5.56174 0.009,-2.22721 0.004,-4.45439 0.002,-6.6816 -0.01,-1.8426 -0.0254,-3.68518 -0.0194,-5.5278 0.005,-1.76992 0.0138,-3.53984 0.0102,-5.30976 0.0185,-2.28479 0.0495,-4.56955 0.0459,-6.85446 0.003,-4.403292 -0.0779,-8.806282 -0.23706,-13.206762 -0.36691,-9.75512 -0.89297,-19.50361 -1.15079,-29.26289 -0.34367,-10.09025 -0.68165,-20.18717 -0.55993,-30.28444 0.0577,-3.903456 0.20011,-7.802848 0.36616,-11.701473 -0.002,-1.613551 -0.007,-3.227634 0.051,-4.840423 0.10914,-2.4733544 0.334,-4.9391514 0.69007,-7.3899124 0.4553,-2.994163 0.77053,-6.004174 1.29262,-8.988063 0,0 10.11414,-4.845095 10.11414,-4.845095 z"
       inkscape:connector-curvature="0"
       inkscape:export-xdpi="96"
       inkscape:export-ydpi="96" />
    <path
       style="opacity:0;fill:#000000;fill-opacity:1;stroke:#000000;stroke-width:0.1;stroke-miterlimit:4;stroke-dasharray:none;stroke-opacity:1"
       id="path829"
       d="m 142.96763,71.027379 c -3.90261,2.293903 -2.31418,1.35386 4.80479,-2.752317 -4.29924,2.450494 -8.61832,4.866507 -12.89772,7.351476 -1.4616,0.848723 5.51582,-3.748703 4.4435,-2.442276 -1.35319,1.648638 -3.5723,2.331789 -5.33657,3.530325 -1.89654,1.288394 -3.7634,2.619957 -5.64509,3.929938 -9.17736,6.489216 -17.90994,13.60805 -25.31515,22.087355 -3.544945,4.17431 -5.105331,7.42078 -5.821502,12.77211 -0.250878,7.23525 3.219952,13.74673 6.538062,19.93812 4.22762,7.0536 9.13054,13.71508 14.63585,19.82719 2.74959,3.05266 5.70761,5.90742 8.62159,8.79901 7.19605,6.90473 14.24017,13.99714 20.25565,21.96882 2.29153,3.47402 4.92357,7.07609 5.87978,11.21825 0.14407,0.62411 0.19136,1.26668 0.28704,1.90002 -0.0199,0.66823 0.0412,1.34382 -0.0596,2.0047 -0.93352,6.11985 -6.45856,12.1322 -10.23663,16.66315 -7.61425,8.92312 -16.69519,16.4232 -25.68556,23.90087 -3.2329,2.63534 -6.5444,5.18394 -9.93616,7.61258 -0.99961,0.71576 -1.97609,1.47079 -3.03356,2.09791 -4.13837,2.45421 -8.303304,4.86802 -12.54426,7.14036 -1.210765,0.64874 -2.528078,1.07521 -3.792117,1.61281 -9.240123,3.35137 -18.951585,5.18448 -28.604707,6.89991 -3.85976,0.65977 -7.740457,1.20309 -11.634218,1.61854 -1.224458,0.13065 -3.794549,0.40944 -5.102961,0.31723 -0.703191,-0.0496 -1.388115,-0.24672 -2.082173,-0.3701 -4.440417,-1.3876 -7.220317,-5.00931 -9.721577,-8.70855 -5.027234,-9.28297 -6.743457,-19.89097 -8.303276,-30.20546 -1.534189,-13.68149 0.289609,-27.54957 4.177533,-40.71735 0.753779,-2.55294 1.720881,-5.03798 2.581322,-7.55697 3.216259,-8.69996 8.069652,-16.64361 14.418599,-23.41466 4.395943,-4.68821 6.582285,-6.2267 11.584077,-10.37495 17.315452,-13.07812 36.831306,-22.92473 56.411808,-32.11924 8.39521,-3.77031 16.68023,-7.74822 24.74786,-12.17843 0.39881,-0.21901 -1.60405,0.84383 -1.23956,0.57151 14.50184,-10.834594 -1.3114,1.94947 12.35862,-9.34404 6.92451,-6.341989 12.48877,-13.981705 16.98874,-22.19638 1.95998,-3.577942 2.7783,-5.638707 4.37531,-9.278022 2.15275,-5.728634 3.96776,-11.88357 3.04791,-18.0693 -0.16354,-1.09977 -0.49615,-2.167668 -0.74422,-3.251499 -0.36411,-0.985893 -0.63105,-2.013339 -1.09233,-2.957679 -3.30791,-6.771968 -10.19396,-9.590932 -16.71977,-12.299961 -11.34681,-4.031055 -23.38874,-4.751705 -35.31966,-4.822916 -7.97791,0.07167 -15.99049,1.188032 -23.588031,3.678301 -1.17561,0.385334 -2.321488,0.856077 -3.482231,1.284117 -1.060757,0.522179 -4.175773,2.2075 -3.182274,1.566539 2.053164,-1.324607 4.177313,-2.549184 6.371535,-3.624106 0.922067,-0.45171 -1.724663,1.118878 -2.537698,1.745956 -2.37653,1.832973 -4.365747,4.062016 -6.353421,6.290564 -4.812009,5.705361 -7.375496,12.754893 -9.669608,19.75008 -0.728229,2.780797 -1.381797,4.722262 -1.543018,7.631345 -0.457883,8.262061 2.874983,15.461146 6.081111,22.835647 7.872368,15.424539 18.55057,29.344134 31.339255,41.026074 3.06437,2.79919 6.33623,5.36241 9.50435,8.04362 19.60096,15.63501 41.97035,27.10231 64.09763,38.64709 12.98908,6.81072 26.17372,13.26764 38.82549,20.69941 2.09267,1.62464 5.26589,3.11738 6.30775,5.79961 0.57152,1.47136 0.24714,1.91003 -0.0315,3.475 -2.43066,5.555 -6.96674,9.75998 -11.32938,13.815 -5.54313,5.15229 -6.25177,5.59675 -12.29718,10.63721 -9.91375,8.13377 -20.06495,16.03507 -30.69686,23.21846 -6.65438,4.496 -8.92704,5.67952 -15.82724,9.72156 -13.07576,7.63638 -26.64722,14.58974 -41.04506,19.39417 -6.66033,2.2225 -8.86751,2.62245 -15.55537,4.25747 -7.079989,1.23489 -14.415046,2.58246 -21.611234,1.43438 -3.008299,-0.47995 -3.820644,-0.91194 -6.589919,-1.9123 -5.075645,-2.3218 -9.079907,-6.2171 -12.383013,-10.63445 -4.706728,-7.61111 -4.824608,-16.97893 -5.50518,-25.63526 -1.452099,-17.98724 -0.673327,-36.03806 2.128631,-53.8614 0.736349,-4.68394 1.708047,-9.32785 2.562069,-13.99177 5.641496,-25.82715 12.178747,-51.52009 20.492238,-76.62932 1.430774,-4.321361 2.991181,-8.598719 4.48677,-12.898079 5.210204,-14.087982 11.222654,-28.038821 20.050878,-40.269223 4.46564,-5.327073 10.1611,-7.825869 16.46296,-11.146789 0.90542,-0.477134 5.36604,-1.722401 5.90706,-1.881646 1.64134,-0.543583 3.28589,-1.077587 4.92403,-1.630756 7.43008,-2.509002 14.36126,-5.276543 21.43133,-8.707758 12.47919,-6.056351 10.14672,-5.010023 6.93186,-3.5998 5.35983,-3.410747 10.64585,-6.964628 15.58867,-10.9647732 1.42972,-1.1570541 3.52241,-2.8957272 4.72369,-4.4331929 0.34685,-0.4439209 0.55914,-0.9781813 0.83872,-1.467272 -0.0578,-0.3173365 0.0583,-0.7277137 -0.1735,-0.9520095 -0.38786,-0.3752864 -0.96262,-0.5062514 -1.4827,-0.6504707 -3.20729,-0.88938912 -4.81386,-0.87085829 -8.38824,-0.5236293 -7.02614,0.6825466 -8.54414,1.4564578 -15.78117,3.410207 -11.25418,4.2337706 -9.57413,3.2364238 -20.74237,9.0316936 -1.03599,0.53758 -2.00038,1.204489 -2.97385,1.848395 -8.67916,5.740867 -12.81192,8.36316 -20.8082,15.045274 -3.22998,2.699139 -6.25747,5.631744 -9.3862,8.447614 -10.295054,10.072706 -19.559733,21.199131 -27.261145,33.382135 -3.534751,5.591691 -4.238882,7.235322 -7.122012,12.839113 -1.630368,3.76747 -3.541154,7.523718 -4.408829,11.573782 -0.194333,0.907095 -0.559199,2.778313 0.171397,3.708505 0.373015,0.47493 1.020168,0.64655 1.53025,0.96983 1.121963,0.22357 2.227127,0.56111 3.365886,0.67072 8.221522,0.79135 16.718822,-0.30572 24.847949,-1.35655 10.019864,-1.295242 13.152984,-1.97393 23.104634,-3.742826 8.82863,-1.628476 17.52046,-3.86774 26.20392,-6.119754 0.91745,-0.237937 7.2101,-1.986478 8.85655,-2.039551 0.66742,-0.02151 1.29256,0.336076 1.93884,0.504116 -0.008,0.990375 0.31331,2.039609 -0.0231,2.971125 -1.00718,2.788822 -8.26686,13.26674 -8.77814,14.03427 -2.85369,4.2839 -5.75745,8.53461 -8.57782,12.84051 -11.0287,16.83765 -10.02223,15.53447 -20.75359,33.22718 -8.93181,15.19923 -17.606899,30.5506 -25.986258,46.06143 -2.135005,3.95206 -7.51721,14.03661 -9.712587,18.67763 -0.875546,1.8509 -1.607823,3.76624 -2.411733,5.64936 -0.1671,1.10836 -0.707501,2.22332 -0.501301,3.32508 0.279824,1.49515 2.622849,0.36874 4.462934,-0.35036 6.324004,-2.47139 12.229303,-5.74633 18.170955,-9.00042 -0.82385,0.46496 -3.275771,1.89299 -2.471538,1.39487 3.961628,-2.4537 17.253458,-10.00675 18.223618,-10.5293 0.91272,-0.49163 1.86182,-1.15198 2.89826,-1.12827 0.62988,0.0144 1.34936,0.60359 1.43735,1.22746 0.17456,1.23761 -0.49728,2.44974 -0.74593,3.67462 -1.00409,1.83804 -1.97667,3.69365 -3.01229,5.51412 -12.9244,22.71941 5.15193,-9.58762 -9.48085,16.27828 -3.45636,6.1097 -6.9674,12.56206 -10.103571,18.8453 -1.421646,2.84822 -2.739705,5.74699 -4.109556,8.62048 -2.577359,6.19812 -5.727311,12.38924 -6.934234,19.06893 -0.263522,1.45844 -0.235662,2.95474 -0.353494,4.43212 0,0 -9.463243,4.72162 -9.463243,4.72162 v 0 c 0.139014,-1.55953 0.117739,-3.14174 0.417044,-4.6786 1.33613,-6.86059 4.750228,-13.17191 7.472875,-19.51974 4.291529,-8.80063 4.420413,-9.24982 9.150787,-18.15699 5.433555,-10.23124 11.353342,-20.196 16.646002,-30.50177 0.36092,-0.80064 0.91446,-1.53998 1.08277,-2.40193 0.0433,-0.22179 -0.31016,-0.46541 -0.53165,-0.42062 -0.90941,0.18388 -3.29373,1.63986 -2.57806,1.04938 1.43203,-1.18153 6.44278,-3.68341 4.77702,-2.86368 -6.96585,3.42793 -12.61066,9.30459 -20.149581,11.68153 -4.791099,2.6026 -8.451998,4.70752 -13.406189,6.95072 -1.796039,0.81322 -3.58241,1.69436 -5.483344,2.21737 -1.384122,0.38081 -5.186989,1.48811 -5.571532,-1.42569 -0.167341,-1.268 0.537795,-2.50081 0.806693,-3.75121 0.940957,-1.96707 1.818937,-3.96551 2.822866,-5.90119 2.097935,-4.04503 8.831295,-15.92966 10.639566,-19.11854 8.806431,-15.53011 17.720801,-30.99913 26.721581,-46.41735 11.82553,-19.87848 8.21391,-14.04156 19.95679,-32.90654 2.61085,-4.19435 9.94054,-15.75788 13.00206,-20.94384 1.13109,-1.915976 2.28531,-4.128679 3.35916,-6.166849 -0.47713,-0.104206 -0.94367,-0.337994 -1.43139,-0.312618 -1.82803,0.09511 -7.10396,1.444082 -8.34318,1.738543 -8.50652,2.021308 -17.01246,4.058974 -25.62485,5.594274 -11.313919,1.98557 -22.640171,4.00341 -34.083212,5.11669 -4.088921,0.3978 -10.797939,0.9071 -15.188036,0.45229 -1.304036,-0.13509 -2.551734,-0.60306 -3.8276,-0.9046 -0.649216,-0.52282 -1.464154,-0.88946 -1.947651,-1.56847 -0.875654,-1.22975 -0.554074,-3.07016 -0.257717,-4.35989 0.970688,-4.224382 3.127526,-8.092159 4.870236,-12.012781 2.995657,-5.606685 3.896098,-7.536738 7.483924,-13.120907 7.894598,-12.287327 17.26251,-23.57048 27.672049,-33.805106 3.130388,-2.840556 6.159577,-5.79679 9.391167,-8.521662 5.99727,-5.056897 14.05424,-11.024047 20.73536,-15.146692 8.98266,-5.542833 19.81059,-11.972877 29.83633,-16.3087171 3.3508,-1.4491207 6.83648,-2.56392575 10.25472,-3.8458886 7.18343,-1.9563568 9.39873,-2.9297218 16.45428,-3.6093065 2.80586,-0.2702586 8.98432,-0.6811103 11.21364,2.0629726 0.3687,0.4538318 0.30058,1.1301584 0.45087,1.6952376 -0.28888,0.59926621 -0.47854,1.25747486 -0.86664,1.79779856 -1.1653,1.62234174 -3.58629,3.59465204 -5.02126,4.74717644 -5.11287,4.1065127 -10.57938,7.74869 -16.08893,11.293631 -5.30088,3.088349 -10.54232,6.281051 -15.90264,9.265046 -2.61331,1.454788 -5.31456,2.747365 -8.00885,4.046069 -8.76861,4.22665 -17.82916,7.742307 -27.08526,10.744285 -1.19927,0.398261 -2.41031,0.762688 -3.59779,1.194789 -0.82366,0.299712 -3.15598,1.493647 -2.43215,0.999377 2.4518,-1.674231 5.0917,-3.05498 7.64959,-4.56215 0.5827,-0.343336 -1.17062,0.681077 -1.72362,1.070433 -1.94846,1.371867 -2.16289,1.751798 -3.94466,3.527478 -9.60239,12.135593 -16.11807,26.328891 -21.69983,40.677427 -1.569744,4.324043 -3.21387,8.621805 -4.709234,12.972132 -8.578358,24.956238 -15.053839,50.626248 -20.396708,76.450848 -0.799793,4.61966 -1.714389,9.22091 -2.399379,13.85899 -2.622137,17.75454 -3.202689,35.39578 -1.3911,53.2529 0.899036,8.38694 1.383602,17.37039 5.947593,24.72941 3.163768,4.26855 6.993069,8.01016 11.930972,10.16437 2.718679,0.96059 3.363169,1.32188 6.319613,1.77967 6.965616,1.07862 14.060973,-0.13952 20.914203,-1.35589 2.46474,-0.60394 4.94802,-1.1367 7.39423,-1.81176 5.7747,-1.59364 10.58553,-3.22956 16.15947,-5.4682 32.46488,-13.03875 -16.29044,6.14871 16.35923,-7.43065 0.2509,-0.10435 -0.30064,0.45275 -0.45097,0.67912 6.71287,-3.88977 9.44723,-5.32966 15.91991,-9.66575 10.60714,-7.10578 20.72539,-14.95728 30.56455,-23.08028 6.32606,-5.29581 6.21681,-5.04764 11.96201,-10.4229 4.12589,-3.86022 8.35343,-7.82228 10.89741,-12.95657 0.3402,-1.08224 0.71847,-1.5928 0.36586,-2.69252 -0.76039,-2.37149 -3.92454,-4.12046 -5.6546,-5.57732 -12.15184,-7.83662 -24.99443,-14.50377 -37.72583,-21.33467 -22.06044,-11.74769 -44.41163,-23.29823 -64.07871,-38.8969 C 105.123,129.96775 102.46178,128.14146 95.119031,120.4318 85.852126,110.70184 77.976943,99.633692 71.577697,87.836474 68.197383,80.536435 64.494499,73.038906 64.705258,64.767496 c 0.07805,-3.06302 0.704088,-4.876593 1.442474,-7.796842 2.261804,-7.04143 4.726609,-14.199986 9.348198,-20.085341 1.966571,-2.280142 3.94499,-4.608586 6.277993,-6.533118 5.303973,-4.375338 11.621106,-7.448315 17.867648,-10.255417 8.795659,-3.008917 17.679979,-4.592363 27.014389,-4.454923 12.031,0.197634 24.16543,1.024338 35.59544,5.113778 6.85179,2.823326 14.00333,5.753603 17.49099,12.857515 0.48314,0.984083 0.75166,2.059702 1.12749,3.089553 0.26847,1.133395 0.62076,2.250154 0.80539,3.400184 1.02386,6.377596 -0.72307,12.735835 -3.00534,18.640573 -1.60438,3.541101 -2.65761,6.033473 -4.57129,9.498531 -4.58013,8.293152 -10.11719,16.102335 -17.05017,22.598202 -1.96465,1.653199 -3.85759,3.395583 -5.89396,4.959593 -6.99788,5.374636 -14.50629,9.387546 -22.2511,13.767446 -7.97372,4.50937 -16.39037,8.1491 -24.66467,12.05156 -7.778894,3.67557 -9.650057,4.46996 -17.292702,8.44101 -2.805854,1.4579 -5.560272,3.01318 -8.361588,4.47977 -0.141618,0.0741 0.510387,-0.38399 0.375246,-0.29861 -8.918938,5.63516 -5.873824,3.62794 -14.23928,9.69534 -4.966104,4.06962 -7.089111,5.54345 -11.464938,10.13527 -6.382525,6.69758 -11.407555,14.5259 -14.7521,23.15268 -0.893612,2.50358 -1.89997,4.96973 -2.68083,7.51074 -3.988967,12.98052 -5.777682,26.71678 -4.11885,40.23086 1.607976,10.11349 3.443171,20.48486 8.650554,29.46238 2.442001,3.39638 5.096648,6.81588 9.347377,7.89384 0.643605,0.0793 1.282859,0.21203 1.930813,0.23792 1.254525,0.0501 3.749921,-0.18349 4.921843,-0.29614 3.8018,-0.36546 7.589586,-0.86915 11.356967,-1.497 9.665607,-1.71491 19.385568,-3.63445 28.56781,-7.18946 1.258367,-0.56994 4.806668,-2.62861 3.775098,-1.70981 -1.677507,1.49413 -3.77841,2.44242 -5.76823,3.48505 -1.09374,0.5731 2.061223,-1.36089 3.070905,-2.0717 3.462465,-2.43756 6.841055,-5.00562 10.156295,-7.63824 9.05191,-7.39882 18.17747,-14.85629 25.82349,-23.74773 3.62772,-4.34434 8.78471,-10.00684 9.97645,-15.78423 0.12262,-0.59444 0.0958,-1.21012 0.14372,-1.81518 -0.069,-0.58311 -0.093,-1.17335 -0.20712,-1.74933 -0.80418,-4.05734 -3.24932,-7.62333 -5.39372,-11.0585 -5.84419,-8.00884 -12.72474,-15.15485 -19.85221,-22.02893 -3.36165,-3.3547 -5.45184,-5.34828 -8.62934,-8.89161 -5.54249,-6.18061 -10.511411,-12.86428 -14.870038,-19.92858 -3.614089,-6.2635 -7.322929,-12.81943 -7.358862,-20.26131 0.169273,-1.57608 0.223986,-2.63303 0.62515,-4.17475 0.918051,-3.52817 2.87016,-6.56099 5.20972,-9.31627 7.57172,-8.671118 16.32414,-15.810655 25.6687,-22.504283 1.72602,-1.216845 8.76824,-6.228773 10.72485,-7.43104 4.47381,-2.748989 9.05042,-5.327073 13.5699,-8.000322 1.81445,-1.073243 -7.28302,4.24993 -5.45481,3.200289 15.0644,-8.649039 7.62366,-4.583597 14.04904,-8.073943 0,0 -8.77042,6.950408 -8.77042,6.950408 z"
       inkscape:connector-curvature="0" />
    <use
       id="use831"
       inkscape:spray-origin="#path829"
       xlink:href="#path829"
       x="0"
       y="0"
       width="100%"
       height="100%"
       transform="translate(-56.609906,29.43575)" />
    <use
       id="use833"
       inkscape:spray-origin="#path829"
       xlink:href="#path829"
       x="0"
       y="0"
       width="100%"
       height="100%"
       transform="translate(-51.730206,2.5073673)" />
    <use
       id="use835"
       inkscape:spray-origin="#path829"
       xlink:href="#path829"
       x="0"
       y="0"
       width="100%"
       height="100%"
       transform="translate(-68.879235,13.29214)" />
    <use
       id="use837"
       inkscape:spray-origin="#path829"
       xlink:href="#path829"
       x="0"
       y="0"
       width="100%"
       height="100%"
       transform="translate(-36.157181,-31.898904)" />
    <use
       id="use839"
       inkscape:spray-origin="#path829"
       xlink:href="#path829"
       x="0"
       y="0"
       width="100%"
       height="100%"
       transform="translate(-47.685696,-48.897005)" />
    <use
       id="use841"
       inkscape:spray-origin="#path829"
       xlink:href="#path829"
       x="0"
       y="0"
       width="100%"
       height="100%"
       transform="translate(-10.067721,-39.417744)" />
    <use
       id="use843"
       inkscape:spray-origin="#path829"
       xlink:href="#path829"
       x="0"
       y="0"
       width="100%"
       height="100%"
       transform="translate(-25.868232,-47.267045)" />
    <use
       id="use845"
       inkscape:spray-origin="#path829"
       xlink:href="#path829"
       x="0"
       y="0"
       width="100%"
       height="100%"
       transform="translate(-35.738482,-37.690404)" />
    <use
       id="use847"
       inkscape:spray-origin="#path829"
       xlink:href="#path829"
       x="0"
       y="0"
       width="100%"
       height="100%"
       transform="translate(-39.878296,-36.217457)" />
    <use
       id="use849"
       inkscape:spray-origin="#path829"
       xlink:href="#path829"
       x="0"
       y="0"
       width="100%"
       height="100%"
       transform="translate(-40.545964,-66.197778)" />
    <use
       id="use851"
       inkscape:spray-origin="#path829"
       xlink:href="#path829"
       x="0"
       y="0"
       width="100%"
       height="100%"
       transform="translate(-54.213371,-61.997209)" />
    <use
       id="use853"
       inkscape:spray-origin="#path829"
       xlink:href="#path829"
       x="0"
       y="0"
       width="100%"
       height="100%"
       transform="translate(-18.403594,-70.863227)" />
    <use
       id="use855"
       inkscape:spray-origin="#path829"
       xlink:href="#path829"
       x="0"
       y="0"
       width="100%"
       height="100%"
       transform="translate(-40.968989,-72.967032)" />
    <use
       id="use857"
       inkscape:spray-origin="#path829"
       xlink:href="#path829"
       x="0"
       y="0"
       width="100%"
       height="100%"
       transform="translate(-62.303889,-68.125173)" />
    <use
       id="use859"
       inkscape:spray-origin="#path829"
       xlink:href="#path829"
       x="0"
       y="0"
       width="100%"
       height="100%"
       transform="translate(-37.89606,-93.076101)" />
    <use
       id="use861"
       inkscape:spray-origin="#path829"
       xlink:href="#path829"
       x="0"
       y="0"
       width="100%"
       height="100%"
       transform="translate(-43.092613,-44.608708)" />
    <use
       id="use863"
       inkscape:spray-origin="#path829"
       xlink:href="#path829"
       x="0"
       y="0"
       width="100%"
       height="100%"
       transform="translate(-37.021629,-75.829022)" />
    <use
       id="use865"
       inkscape:spray-origin="#path829"
       xlink:href="#path829"
       x="0"
       y="0"
       width="100%"
       height="100%"
       transform="translate(-63.269879,-78.716278)" />
    <use
       id="use867"
       inkscape:spray-origin="#path829"
       xlink:href="#path829"
       x="0"
       y="0"
       width="100%"
       height="100%"
       transform="translate(-75.674613,-62.638505)" />
    <use
       id="use869"
       inkscape:spray-origin="#path829"
       xlink:href="#path829"
       x="0"
       y="0"
       width="100%"
       height="100%"
       transform="translate(-66.654511,-62.328418)" />
    <use
       id="use871"
       inkscape:spray-origin="#path829"
       xlink:href="#path829"
       x="0"
       y="0"
       width="100%"
       height="100%"
       transform="translate(-24.976496,-22.997132)" />
    <use
       id="use873"
       inkscape:spray-origin="#path829"
       xlink:href="#path829"
       x="0"
       y="0"
       width="100%"
       height="100%"
       transform="translate(10.07114,-27.711132)" />
    <use
       id="use875"
       inkscape:spray-origin="#path829"
       xlink:href="#path829"
       x="0"
       y="0"
       width="100%"
       height="100%"
       transform="translate(5.8962111,-25.028837)" />
    <use
       id="use877"
       inkscape:spray-origin="#path829"
       xlink:href="#path829"
       x="0"
       y="0"
       width="100%"
       height="100%"
       transform="translate(13.820389,-2.1474057)" />
    <use
       id="use879"
       inkscape:spray-origin="#path829"
       xlink:href="#path829"
       x="0"
       y="0"
       width="100%"
       height="100%"
       transform="translate(-5.7026585,-13.096174)" />
    <use
       id="use881"
       inkscape:spray-origin="#path829"
       xlink:href="#path829"
       x="0"
       y="0"
       width="100%"
       height="100%"
       transform="translate(-6.9001716,5.7166954)" />
    <use
       id="use883"
       inkscape:spray-origin="#path829"
       xlink:href="#path829"
       x="0"
       y="0"
       width="100%"
       height="100%"
       transform="translate(33.72442,0.2542074)" />
    <use
       id="use885"
       inkscape:spray-origin="#path829"
       xlink:href="#path829"
       x="0"
       y="0"
       width="100%"
       height="100%"
       transform="translate(23.792246,22.098897)" />
    <use
       id="use887"
       inkscape:spray-origin="#path829"
       xlink:href="#path829"
       x="0"
       y="0"
       width="100%"
       height="100%"
       transform="translate(-8.1264745,-6.0186243)" />
    <use
       id="use889"
       inkscape:spray-origin="#path829"
       xlink:href="#path829"
       x="0"
       y="0"
       width="100%"
       height="100%"
       transform="translate(38.945394,30.064845)" />
    <use
       id="use891"
       inkscape:spray-origin="#path829"
       xlink:href="#path829"
       x="0"
       y="0"
       width="100%"
       height="100%"
       transform="translate(34.560088,36.395321)" />
    <use
       id="use893"
       inkscape:spray-origin="#path829"
       xlink:href="#path829"
       x="0"
       y="0"
       width="100%"
       height="100%"
       transform="translate(33.185413,16.19752)" />
    <use
       id="use895"
       inkscape:spray-origin="#path829"
       xlink:href="#path829"
       x="0"
       y="0"
       width="100%"
       height="100%"
       transform="translate(3.5427462,-65.671025)" />
    <use
       id="use897"
       inkscape:spray-origin="#path829"
       xlink:href="#path829"
       x="0"
       y="0"
       width="100%"
       height="100%"
       transform="translate(-1.1597433,-47.805324)" />
    <use
       id="use899"
       inkscape:spray-origin="#path829"
       xlink:href="#path829"
       x="0"
       y="0"
       width="100%"
       height="100%"
       transform="translate(-2.5638647,-46.757448)" />
    <use
       id="use901"
       inkscape:spray-origin="#path829"
       xlink:href="#path829"
       x="0"
       y="0"
       width="100%"
       height="100%"
       transform="translate(-58.028503,37.309761)" />
    <use
       id="use903"
       inkscape:spray-origin="#path829"
       xlink:href="#path829"
       x="0"
       y="0"
       width="100%"
       height="100%"
       transform="translate(-42.256941,34.05447)" />
    <use
       id="use905"
       inkscape:spray-origin="#path829"
       xlink:href="#path829"
       x="0"
       y="0"
       width="100%"
       height="100%"
       transform="translate(-58.545247,59.919852)" />
    <use
       id="use907"
       inkscape:spray-origin="#path829"
       xlink:href="#path829"
       x="0"
       y="0"
       width="100%"
       height="100%"
       transform="translate(-45.373152,57.417425)" />
    <use
       id="use909"
       inkscape:spray-origin="#path829"
       xlink:href="#path829"
       x="0"
       y="0"
       width="100%"
       height="100%"
       transform="translate(-39.572013,116.96048)" />
    <use
       id="use911"
       inkscape:spray-origin="#path829"
       xlink:href="#path829"
       x="0"
       y="0"
       width="100%"
       height="100%"
       transform="translate(-18.153174,87.216966)" />
    <use
       id="use913"
       inkscape:spray-origin="#path829"
       xlink:href="#path829"
       x="0"
       y="0"
       width="100%"
       height="100%"
       transform="translate(-29.165217,113.1989)" />
    <use
       id="use915"
       inkscape:spray-origin="#path829"
       xlink:href="#path829"
       x="0"
       y="0"
       width="100%"
       height="100%"
       transform="translate(-15.894912,37.814583)" />
    <use
       id="use917"
       inkscape:spray-origin="#path829"
       xlink:href="#path829"
       x="0"
       y="0"
       width="100%"
       height="100%"
       transform="translate(-58.979311,38.203628)" />
    <use
       id="use919"
       inkscape:spray-origin="#path829"
       xlink:href="#path829"
       x="0"
       y="0"
       width="100%"
       height="100%"
       transform="translate(-61.357286,16.839159)" />
    <use
       id="use921"
       inkscape:spray-origin="#path829"
       xlink:href="#path829"
       x="0"
       y="0"
       width="100%"
       height="100%"
       transform="translate(-48.309647,21.175629)" />
    <use
       id="use923"
       inkscape:spray-origin="#path829"
       xlink:href="#path829"
       x="0"
       y="0"
       width="100%"
       height="100%"
       transform="translate(-54.011459,59.531246)" />
    <use
       id="use925"
       inkscape:spray-origin="#path829"
       xlink:href="#path829"
       x="0"
       y="0"
       width="100%"
       height="100%"
       transform="translate(0.73285551,44.934622)" />
    <use
       id="use927"
       inkscape:spray-origin="#path829"
       xlink:href="#path829"
       x="0"
       y="0"
       width="100%"
       height="100%"
       transform="translate(-33.798872,50.164211)" />
    <use
       id="use929"
       inkscape:spray-origin="#path829"
       xlink:href="#path829"
       x="0"
       y="0"
       width="100%"
       height="100%"
       transform="translate(-39.484643,21.766449)" />
    <path
       style="fill:url(#linearGradient981);fill-opacity:1;stroke:#000000;stroke-width:1.54420602;stroke-linecap:butt;stroke-linejoin:miter;stroke-miterlimit:4;stroke-dasharray:none;stroke-opacity:1"
       d="m -305.3296,31.411226 c 0.70387,87.642854 -0.58854,90.906354 -0.58854,90.906354 z"
       id="path931"
       inkscape:connector-curvature="0"
       inkscape:export-xdpi="96"
       inkscape:export-ydpi="96" />
    <path
       style="fill:url(#linearGradient975);fill-opacity:1;stroke:#000000;stroke-width:1.45314407;stroke-linecap:butt;stroke-linejoin:miter;stroke-miterlimit:4;stroke-dasharray:none;stroke-opacity:1"
       d="m -305.91235,122.319 c 14.56339,37.63765 14.56339,37.63765 14.56339,37.63765 z"
       id="path933"
       inkscape:connector-curvature="0"
       inkscape:export-xdpi="96"
       inkscape:export-ydpi="96" />
    <path
       style="fill:url(#linearGradient969);fill-opacity:1;stroke:#000000;stroke-width:1.57088196;stroke-linecap:butt;stroke-linejoin:miter;stroke-miterlimit:4;stroke-dasharray:none;stroke-opacity:1"
       d="m -323.21379,159.4627 c 17.24741,-37.13896 17.24741,-37.13896 17.24741,-37.13896 z"
       id="path933-8"
       inkscape:connector-curvature="0"
       inkscape:export-xdpi="96"
       inkscape:export-ydpi="96" />
    <ellipse
       style="opacity:1;fill:url(#linearGradient963);fill-opacity:1;stroke:#000000;stroke-width:1.54420602;stroke-miterlimit:4;stroke-dasharray:none;stroke-opacity:1"
       id="path962"
       cx="-305.21652"
       cy="14.394127"
       rx="23.113674"
       ry="19.302769"
       inkscape:export-xdpi="96"
       inkscape:export-ydpi="96" />
    <path
       style="opacity:0;fill:#00ff00;fill-opacity:0;stroke:#000000;stroke-width:0.05926667;stroke-miterlimit:4;stroke-dasharray:none;stroke-opacity:1"
       id="path827-9"
       d="m -150.88882,79.109937 c -0.7743,2.928948 -1.01975,5.959861 -1.45978,8.949619 -0.36492,2.398321 -0.5572,4.816941 -0.65382,7.239449 -0.0516,1.593595 -0.0466,3.188238 -0.044,4.782435 -0.26008,3.96788 -0.54526,7.93834 -0.71451,11.91554 -0.38394,10.14069 -0.19831,20.29571 0.12051,30.43549 0.25505,9.70087 0.87891,19.38308 1.4929,29.06586 0.30263,4.35851 0.46404,8.72368 0.55824,13.09096 0.0314,2.27177 0.0513,4.54367 0.0606,6.81563 -0.0107,1.76771 -0.004,3.53547 -0.001,5.3032 0.005,1.84919 -0.0109,3.69834 -0.0204,5.5475 -0.002,2.22663 -0.007,4.45322 0.002,6.67984 -0.009,1.88327 0.0709,3.769 -0.0549,5.64906 -0.23898,1.69907 -0.4619,3.39666 -0.59443,5.10766 -0.19827,3.73344 -0.1975,7.47371 -0.19719,11.21131 -0.18445,3.90815 0.0974,7.75017 0.68717,11.60677 0.4286,2.52988 0.70377,5.08193 0.85878,7.64226 0.0864,1.63248 0.0888,3.26762 0.0895,4.90188 -0.002,1.50311 -0.006,3.00622 -0.008,4.50933 -2.5e-4,0.25109 -5.3e-4,0.50218 -8e-4,0.75327 0,0 -9.99165,5.09004 -9.99165,5.09004 v 0 c 1.4e-4,-0.25117 2.7e-4,-0.50233 5.3e-4,-0.75352 0.001,-1.50332 0.003,-3.00665 0.009,-4.50996 0.005,-1.62324 0.0149,-3.24688 -0.03,-4.8697 -0.0929,-2.54444 -0.30146,-5.08314 -0.69903,-7.5998 -0.26523,-1.80186 -0.61589,-3.62918 -0.70364,-5.45112 -0.10155,-2.1082 0.1078,-4.23137 0.0147,-6.34054 0.007,-3.72321 -0.0344,-7.4461 -0.0171,-11.16907 0.0546,-1.73013 0.26201,-3.44471 0.56652,-5.14898 0.24675,-1.84039 0.0508,-3.70896 0.12593,-5.56174 0.009,-2.22721 0.004,-4.45439 0.002,-6.6816 -0.01,-1.8426 -0.0254,-3.68518 -0.0194,-5.5278 0.005,-1.76992 0.0138,-3.53984 0.0102,-5.30976 0.0185,-2.28479 0.0495,-4.56955 0.0459,-6.85446 0.003,-4.40329 -0.0779,-8.80628 -0.23706,-13.20676 -0.36691,-9.75512 -0.89297,-19.50361 -1.15079,-29.26289 -0.34367,-10.09025 -0.68165,-20.18717 -0.55993,-30.28444 0.0577,-3.90345 0.20011,-7.80285 0.36616,-11.70147 -0.002,-1.61355 -0.007,-3.22763 0.051,-4.84042 0.10914,-2.473356 0.334,-4.939154 0.69007,-7.389915 0.4553,-2.994162 0.77053,-6.004174 1.29262,-8.988063 0,0 10.11414,-4.845095 10.11414,-4.845095 z"
       inkscape:connector-curvature="0" />
    <path
       style="fill:url(#linearGradient957);fill-opacity:1;stroke:#000000;stroke-width:1.54420614;stroke-linecap:butt;stroke-linejoin:miter;stroke-miterlimit:4;stroke-dasharray:none;stroke-opacity:1"
       d="m -255.49639,31.783327 c 0.70387,87.642853 -0.58854,90.906353 -0.58854,90.906353 z"
       id="path931-2"
       inkscape:connector-curvature="0"
       inkscape:export-xdpi="96"
       inkscape:export-ydpi="96" />
    <path
       style="fill:url(#linearGradient951);fill-opacity:1;stroke:#000000;stroke-width:1.18975604;stroke-linecap:butt;stroke-linejoin:miter;stroke-miterlimit:4;stroke-dasharray:none;stroke-opacity:1"
       d="m -256.14981,121.73109 c 9.87247,37.2184 9.87247,37.2184 9.87247,37.2184 z"
       id="path933-1"
       inkscape:connector-curvature="0"
       inkscape:export-xdpi="96"
       inkscape:export-ydpi="96" />
    <path
       style="fill:url(#linearGradient945);fill-opacity:1;stroke:#000000;stroke-width:1.04709888;stroke-linecap:butt;stroke-linejoin:miter;stroke-miterlimit:4;stroke-dasharray:none;stroke-opacity:1"
       d="m -263.90475,159.085 c 7.81982,-36.39532 7.81982,-36.39532 7.81982,-36.39532 z"
       id="path933-8-1"
       inkscape:connector-curvature="0"
       inkscape:export-xdpi="96"
       inkscape:export-ydpi="96" />
    <ellipse
       style="opacity:1;fill:url(#linearGradient939);fill-opacity:1;stroke:#000000;stroke-width:1.54420614;stroke-miterlimit:4;stroke-dasharray:none;stroke-opacity:1"
       id="path962-4"
       cx="-255.38332"
       cy="14.766224"
       rx="23.113676"
       ry="19.302769"
       inkscape:export-xdpi="96"
       inkscape:export-ydpi="96" />
    <rect
       style="opacity:0;fill:none;fill-opacity:1;stroke:#000000;stroke-width:3;stroke-miterlimit:4;stroke-dasharray:none;stroke-opacity:1"
       id="rect927"
       width="300.77194"
       height="187.17104"
       x="-354.50699"
       y="-7.7389688" />
    <path
       style="fill:url(#linearGradient957-1);fill-opacity:1;stroke:#000000;stroke-width:1.54420614;stroke-linecap:butt;stroke-linejoin:miter;stroke-miterlimit:4;stroke-dasharray:none;stroke-opacity:1"
       d="m -198.10325,31.851082 c 0.70387,87.642848 -0.58854,90.906348 -0.58854,90.906348 z"
       id="path931-2-0"
       inkscape:connector-curvature="0"
       inkscape:export-xdpi="96"
       inkscape:export-ydpi="96" />
    <path
       style="fill:url(#linearGradient951-7);fill-opacity:1;stroke:#000000;stroke-width:0.65473205;stroke-linecap:butt;stroke-linejoin:miter;stroke-miterlimit:4;stroke-dasharray:none;stroke-opacity:1"
       d="m -199.54812,121.6759 c -2.97014,37.46427 -2.97014,37.46427 -2.97014,37.46427 z"
       id="path933-1-3"
       inkscape:connector-curvature="0"
       inkscape:export-xdpi="96"
       inkscape:export-ydpi="96" />
    <path
       style="fill:url(#linearGradient945-3);fill-opacity:1;stroke:#000000;stroke-width:0.87925839;stroke-linecap:butt;stroke-linejoin:miter;stroke-miterlimit:4;stroke-dasharray:none;stroke-opacity:1"
       d="m -193.58172,158.57016 c -5.54606,-36.18391 -5.54606,-36.18391 -5.54606,-36.18391 z"
       id="path933-8-1-3"
       inkscape:connector-curvature="0"
       inkscape:export-xdpi="96"
       inkscape:export-ydpi="96" />
    <ellipse
       style="opacity:1;fill:url(#linearGradient939-5);fill-opacity:1;stroke:#000000;stroke-width:1.54420614;stroke-miterlimit:4;stroke-dasharray:none;stroke-opacity:1"
       id="path962-4-6"
       cx="-197.99017"
       cy="14.83398"
       rx="23.113678"
       ry="19.302769"
       inkscape:export-xdpi="96"
       inkscape:export-ydpi="96" />
    <path
       style="fill:url(#linearGradient957-12);fill-opacity:1;stroke:#000000;stroke-width:1.54420614;stroke-linecap:butt;stroke-linejoin:miter;stroke-miterlimit:4;stroke-dasharray:none;stroke-opacity:1"
       d="m -147.97459,31.851082 c 0.70387,87.642848 -0.58854,90.906348 -0.58854,90.906348 z"
       id="path931-2-4"
       inkscape:connector-curvature="0"
       inkscape:export-xdpi="96"
       inkscape:export-ydpi="96" />
    <path
       style="fill:url(#linearGradient951-8);fill-opacity:1;stroke:#000000;stroke-width:1.18975604;stroke-linecap:butt;stroke-linejoin:miter;stroke-miterlimit:4;stroke-dasharray:none;stroke-opacity:1"
       d="m -148.62801,121.79884 c 9.87248,37.2184 9.87248,37.2184 9.87248,37.2184 z"
       id="path933-1-5"
       inkscape:connector-curvature="0"
       inkscape:export-xdpi="96"
       inkscape:export-ydpi="96" />
    <path
       style="fill:url(#linearGradient945-8);fill-opacity:1;stroke:#000000;stroke-width:1.04709888;stroke-linecap:butt;stroke-linejoin:miter;stroke-miterlimit:4;stroke-dasharray:none;stroke-opacity:1"
       d="m -156.38295,159.15275 c 7.81982,-36.39532 7.81982,-36.39532 7.81982,-36.39532 z"
       id="path933-8-1-7"
       inkscape:connector-curvature="0"
       inkscape:export-xdpi="96"
       inkscape:export-ydpi="96" />
    <ellipse
       style="opacity:1;fill:url(#linearGradient939-1);fill-opacity:1;stroke:#000000;stroke-width:1.54420614;stroke-miterlimit:4;stroke-dasharray:none;stroke-opacity:1"
       id="path962-4-3"
       cx="-147.86151"
       cy="14.833982"
       rx="23.113678"
       ry="19.302769"
       inkscape:export-xdpi="96"
       inkscape:export-ydpi="96" />
    <path
       style="fill:url(#linearGradient981-2);fill-opacity:1;stroke:#000000;stroke-width:1.54420614;stroke-linecap:butt;stroke-linejoin:miter;stroke-miterlimit:4;stroke-dasharray:none;stroke-opacity:1"
       d="m -99.288481,31.513734 c 0.70387,87.642856 -0.58854,90.906356 -0.58854,90.906356 z"
       id="path931-4"
       inkscape:connector-curvature="0"
       inkscape:export-xdpi="96"
       inkscape:export-ydpi="96" />
    <path
       style="fill:url(#linearGradient975-7);fill-opacity:1;stroke:#000000;stroke-width:1.45314407;stroke-linecap:butt;stroke-linejoin:miter;stroke-miterlimit:4;stroke-dasharray:none;stroke-opacity:1"
       d="m -99.871231,122.42151 c 14.56339,37.63765 14.56339,37.63765 14.56339,37.63765 z"
       id="path933-5"
       inkscape:connector-curvature="0"
       inkscape:export-xdpi="96"
       inkscape:export-ydpi="96" />
    <path
       style="fill:url(#linearGradient969-7);fill-opacity:1;stroke:#000000;stroke-width:1.57088208;stroke-linecap:butt;stroke-linejoin:miter;stroke-miterlimit:4;stroke-dasharray:none;stroke-opacity:1"
       d="m -117.17267,159.56521 c 17.247409,-37.13896 17.247409,-37.13896 17.247409,-37.13896 z"
       id="path933-8-19"
       inkscape:connector-curvature="0"
       inkscape:export-xdpi="96"
       inkscape:export-ydpi="96" />
    <ellipse
       style="opacity:1;fill:url(#linearGradient963-6);fill-opacity:1;stroke:#000000;stroke-width:1.54420614;stroke-miterlimit:4;stroke-dasharray:none;stroke-opacity:1"
       id="path962-41"
       cx="-99.1754"
       cy="14.496635"
       rx="23.113676"
       ry="19.302769"
       inkscape:export-xdpi="96"
       inkscape:export-ydpi="96" />
    <path
       style="fill:none;stroke:#000000;stroke-width:1;stroke-linecap:butt;stroke-linejoin:miter;stroke-miterlimit:4;stroke-dasharray:none;stroke-opacity:1"
       d="m -306.1815,53.208825 c -15.86807,24.162734 -15.50745,24.162734 -15.50745,24.162734 z"
       id="path959"
       inkscape:connector-curvature="0"
       inkscape:export-xdpi="96"
       inkscape:export-ydpi="96" />
    <path
       style="fill:none;stroke:#000000;stroke-width:1.08371651;stroke-linecap:butt;stroke-linejoin:miter;stroke-miterlimit:4;stroke-dasharray:none;stroke-opacity:1"
       d="m -306.14631,53.235756 c 17.63213,25.538581 17.23142,25.538581 17.23142,25.538581 z"
       id="path959-0"
       inkscape:connector-curvature="0"
       inkscape:export-xdpi="96"
       inkscape:export-ydpi="96" />
    <path
       style="fill:url(#linearGradient981-9);fill-opacity:1;stroke:#000000;stroke-width:1.54420614;stroke-linecap:butt;stroke-linejoin:miter;stroke-miterlimit:4;stroke-dasharray:none;stroke-opacity:1"
       d="m -255.56127,30.824736 c 0.70387,87.642854 -0.58854,90.906354 -0.58854,90.906354 z"
       id="path931-0"
       inkscape:connector-curvature="0"
       inkscape:export-xdpi="96"
       inkscape:export-ydpi="96" />
    <path
       style="fill:none;stroke:#000000;stroke-width:0.86714703;stroke-linecap:butt;stroke-linejoin:miter;stroke-miterlimit:4;stroke-dasharray:none;stroke-opacity:1"
       d="m -256.35748,52.556723 c -11.20861,25.721958 -10.95388,25.721958 -10.95388,25.721958 z"
       id="path959-3"
       inkscape:connector-curvature="0"
       inkscape:export-xdpi="96"
       inkscape:export-ydpi="96" />
    <path
       style="fill:none;stroke:#000000;stroke-width:0.92323321;stroke-linecap:butt;stroke-linejoin:miter;stroke-miterlimit:4;stroke-dasharray:none;stroke-opacity:1"
       d="m -256.4428,52.569851 c 11.89138,27.48279 11.62113,27.48279 11.62113,27.48279 z"
       id="path959-0-7"
       inkscape:connector-curvature="0"
       inkscape:export-xdpi="96"
       inkscape:export-ydpi="96" />
    <path
       style="fill:url(#linearGradient981-1);fill-opacity:1;stroke:#000000;stroke-width:1.54420614;stroke-linecap:butt;stroke-linejoin:miter;stroke-miterlimit:4;stroke-dasharray:none;stroke-opacity:1"
       d="m -198.10325,31.851082 c 0.70387,87.642848 -0.58854,90.906358 -0.58854,90.906358 z"
       id="path931-7"
       inkscape:connector-curvature="0"
       inkscape:export-xdpi="96"
       inkscape:export-ydpi="96" />
    <path
       style="fill:none;stroke:#000000;stroke-width:0.59662449;stroke-linecap:butt;stroke-linejoin:miter;stroke-miterlimit:4;stroke-dasharray:none;stroke-opacity:1"
       d="m -198.2829,53.451993 c 4.7917,28.482801 4.6828,28.482801 4.6828,28.482801 z"
       id="path959-02"
       inkscape:connector-curvature="0"
       inkscape:export-xdpi="96"
       inkscape:export-ydpi="96" />
    <path
       style="fill:none;stroke:#000000;stroke-width:0.76989204;stroke-linecap:butt;stroke-linejoin:miter;stroke-miterlimit:4;stroke-dasharray:none;stroke-opacity:1"
       d="m -198.33314,53.465017 c -7.1757,31.671253 -7.01261,31.671253 -7.01261,31.671253 z"
       id="path959-0-73"
       inkscape:connector-curvature="0"
       inkscape:export-xdpi="96"
       inkscape:export-ydpi="96" />
    <path
       style="fill:url(#linearGradient981-4);fill-opacity:1;stroke:#000000;stroke-width:1.54420614;stroke-linecap:butt;stroke-linejoin:miter;stroke-miterlimit:4;stroke-dasharray:none;stroke-opacity:1"
       d="m -147.97459,31.851071 c 0.70387,87.642859 -0.58854,90.906359 -0.58854,90.906359 z"
       id="path931-6"
       inkscape:connector-curvature="0"
       inkscape:export-xdpi="96"
       inkscape:export-ydpi="96" />
    <path
       style="fill:none;stroke:#000000;stroke-width:0.99235219;stroke-linecap:butt;stroke-linejoin:miter;stroke-miterlimit:4;stroke-dasharray:none;stroke-opacity:1"
       d="m -148.82649,53.64867 c -12.45857,30.306362 -12.17543,30.306362 -12.17543,30.306362 z"
       id="path959-6"
       inkscape:connector-curvature="0"
       inkscape:export-xdpi="96"
       inkscape:export-ydpi="96" />
    <path
       style="fill:none;stroke:#000000;stroke-width:0.89373821;stroke-linecap:butt;stroke-linejoin:miter;stroke-miterlimit:4;stroke-dasharray:none;stroke-opacity:1"
       d="m -148.86862,53.594233 c 11.91682,25.69984 11.646,25.69984 11.646,25.69984 z"
       id="path959-0-9"
       inkscape:connector-curvature="0"
       inkscape:export-xdpi="96"
       inkscape:export-ydpi="96" />
    <path
       style="fill:url(#linearGradient981-48);fill-opacity:1;stroke:#000000;stroke-width:1.54420614;stroke-linecap:butt;stroke-linejoin:miter;stroke-miterlimit:4;stroke-dasharray:none;stroke-opacity:1"
       d="m -99.288481,31.513734 c 0.70387,87.642856 -0.58854,90.906356 -0.58854,90.906356 z"
       id="path931-45"
       inkscape:connector-curvature="0"
       inkscape:export-xdpi="96"
       inkscape:export-ydpi="96" />
    <path
       style="fill:none;stroke:#000000;stroke-width:1.10153127;stroke-linecap:butt;stroke-linejoin:miter;stroke-miterlimit:4;stroke-dasharray:none;stroke-opacity:1"
       d="m -100.18312,53.337035 c -17.24961,26.970228 -16.8576,26.970228 -16.8576,26.970228 z"
       id="path959-8"
       inkscape:connector-curvature="0"
       inkscape:export-xdpi="96"
       inkscape:export-ydpi="96" />
    <path
       style="fill:none;stroke:#000000;stroke-width:0.92558438;stroke-linecap:butt;stroke-linejoin:miter;stroke-miterlimit:4;stroke-dasharray:none;stroke-opacity:1"
       d="m -100.16981,53.276944 c 13.359143,24.588019 13.055541,24.588019 13.055541,24.588019 l -4.685796,-8.82495 z"
       id="path959-0-75"
       inkscape:connector-curvature="0"
       sodipodi:nodetypes="cccc"
       inkscape:export-xdpi="96"
       inkscape:export-ydpi="96" />
  </g>
</svg>
